<svg width="300" height="180" xmlns="http://www.w3.org/2000/svg">
  <!-- 背景 -->
  <rect width="300" height="180" fill="#f5f5f5" />
  
  <!-- 标题框 -->
  <rect x="0" y="0" width="300" height="40" fill="#673ab7" />
  <text x="150" y="25" font-family="Arial" font-size="16" text-anchor="middle" fill="white">FREE YOUR FEARS</text>
  
  <!-- 女性侧脸 -->
  <path d="M180,90 C190,70 200,65 220,65 C230,65 240,70 245,80 C250,90 247,105 245,110 C240,120 230,125 220,125 C210,125 200,122 195,115 C190,108 170,110 180,90" fill="#ffddc1" />
  <path d="M245,85 C243,82 238,80 233,82 C228,84 225,90 223,95 C220,100 215,105 220,110 C225,115 230,112 235,108 C240,104 247,88 245,85" fill="#f5f5f5" /> <!-- 耳朵 -->
  <path d="M225,85 L227,85 L225,98 L223,98 Z" fill="#673ab7" /> <!-- 耳环 -->
  <path d="M233,95 C233,95 235,95 236,94 C237,93 238,90 238,90" stroke="#000" stroke-width="1" fill="none" /> <!-- 眉毛 -->
  <circle cx="237" cy="97" r="1.5" fill="#000" /> <!-- 眼睛 -->
  <path d="M230,105 C232,104 234,104 236,105" stroke="#000" stroke-width="1" fill="none" /> <!-- 嘴巴 -->
  
  <!-- 白鸽 -->
  <path d="M50,60 C45,55 40,55 35,60 C30,65 30,75 35,80 C40,85 50,85 50,80 L50,60" fill="white" stroke="#000" stroke-width="1" /> <!-- 鸽子身体 -->
  <circle cx="38" cy="65" r="2" fill="#000" /> <!-- 鸽子眼睛 -->
  <path d="M33,70 L30,68" stroke="#ff5722" stroke-width="1" /> <!-- 鸽子嘴 -->
  <path d="M50,70 C60,65 70,70 70,80 C70,90 60,95 50,90 L50,70" fill="white" stroke="#000" stroke-width="1" /> <!-- 翅膀 -->
  <path d="M50,80 C60,85 65,95 50,100 L50,80" fill="white" stroke="#000" stroke-width="1" /> <!-- 尾巴 -->
  
  <!-- 白鸽2 -->
  <path d="M100,70 C95,65 90,65 85,70 C80,75 80,85 85,90 C90,95 100,95 100,90 L100,70" fill="white" stroke="#000" stroke-width="1" /> <!-- 鸽子身体 -->
  <circle cx="88" cy="75" r="2" fill="#000" /> <!-- 鸽子眼睛 -->
  <path d="M83,80 L80,78" stroke="#ff5722" stroke-width="1" /> <!-- 鸽子嘴 -->
  <path d="M100,80 C110,75 120,80 120,90 C120,100 110,105 100,100 L100,80" fill="white" stroke="#000" stroke-width="1" /> <!-- 翅膀 -->
  <path d="M100,90 C110,95 115,105 100,110 L100,90" fill="white" stroke="#000" stroke-width="1" /> <!-- 尾巴 -->
  
  <!-- 文字 -->
  <text x="150" y="150" font-family="Arial" font-size="12" text-anchor="middle" fill="#673ab7">Emotional resilience workshops</text>
  <text x="150" y="170" font-family="Arial" font-size="10" text-anchor="middle" fill="#555">Find your inner strength through mindfulness</text>
</svg> 