<svg width="119" height="96" xmlns="http://www.w3.org/2000/svg" xmlns:xlink="http://www.w3.org/1999/xlink" xml:space="preserve" overflow="hidden"><g transform="translate(-142 -765)"><g><g><g><g><path d="M56.8223 71.0279C48.9879 71.0279 42.6167 64.6567 42.6167 56.8223 42.6167 48.9879 48.9879 42.6167 56.8223 42.6167 64.6567 42.6167 71.0279 48.9879 71.0279 56.8223 71.0279 64.6567 64.6567 71.0279 56.8223 71.0279ZM56.8223 49.7195C52.9051 49.7195 49.7195 52.9051 49.7195 56.8223 49.7195 60.7395 52.9051 63.9251 56.8223 63.9251 60.7395 63.9251 63.9251 60.7395 63.9251 56.8223 63.9251 52.9051 60.7395 49.7195 56.8223 49.7195Z" fill="#FFA981" fill-rule="nonzero" fill-opacity="1" transform="matrix(1 0 0 1.00406 145.355 766.145)"/><path d="M56.8223 92.3363C23.3433 92.3363 1.50934 60.1606 0.596634 58.7933-0.198878 57.6001-0.198878 56.0481 0.596634 54.8548 1.50934 53.484 23.3433 21.3084 56.8223 21.3084 90.3013 21.3084 112.135 53.484 113.048 54.8513 113.844 56.0446 113.844 57.5965 113.048 58.7898 112.135 60.1606 90.3013 92.3363 56.8223 92.3363ZM7.94802 56.8223C13.1117 63.5593 31.6678 85.2335 56.8223 85.2335 81.9768 85.2335 100.536 63.5593 105.697 56.8223 100.536 50.0853 81.9768 28.4112 56.8223 28.4112 31.6678 28.4112 13.1117 50.0853 7.94802 56.8223Z" fill="#FFA981" fill-rule="nonzero" fill-opacity="1" transform="matrix(1 0 0 1.00406 145.355 766.145)"/><path d="M53.2709 0 60.3737 0 60.3737 14.2056 53.2709 14.2056Z" fill="#FFA981" fill-rule="nonzero" fill-opacity="1" transform="matrix(1 0 0 1.00406 145.355 766.145)"/><path d="M16.0136 12.0244 23.1307 12.0244 23.1307 27.1235 16.0136 27.1235Z" fill="#FFA981" fill-rule="nonzero" fill-opacity="1" transform="matrix(0.705668 -0.708555 0.705692 0.70853 137.265 785.757)"/><path d="M86.7545 16.0136 101.854 16.0136 101.854 23.1307 86.7545 23.1307Z" fill="#FFA981" fill-rule="nonzero" fill-opacity="1" transform="matrix(0.705668 -0.708555 0.705692 0.70853 159.109 838.707)"/></g></g></g></g></g></svg>