<?xml version="1.0" encoding="UTF-8"?>
<svg width="200" height="200" viewBox="0 0 200 200" fill="none" xmlns="http://www.w3.org/2000/svg">
  <!-- Gradient Background -->
  <defs>
    <linearGradient id="bgGradient" x1="0" y1="0" x2="200" y2="200" gradientUnits="userSpaceOnUse">
      <stop offset="0%" stop-color="#4A90E2"/>
      <stop offset="100%" stop-color="#357ABD"/>
    </linearGradient>
    <filter id="shadow" x="-20%" y="-20%" width="140%" height="140%">
      <feGaussianBlur in="SourceAlpha" stdDeviation="3"/>
      <feOffset dx="0" dy="2"/>
      <feComponentTransfer>
        <feFuncA type="linear" slope="0.3"/>
      </feComponentTransfer>
      <feMerge>
        <feMergeNode/>
        <feMergeNode in="SourceGraphic"/>
      </feMerge>
    </filter>
  </defs>

  <!-- Background Circle with Gradient -->
  <circle cx="100" cy="100" r="98" fill="url(#bgGradient)"/>
  
  <!-- Decorative Background Elements -->
  <circle cx="50" cy="50" r="30" fill="white" fill-opacity="0.1"/>
  <circle cx="150" cy="150" r="40" fill="white" fill-opacity="0.1"/>
  
  <!-- Lotus Flower -->
  <g filter="url(#shadow)">
    <!-- Bottom Petals -->
    <path d="M60 110C75 110 90 100 100 85C110 100 125 110 140 110C140 125 125 145 100 145C75 145 60 125 60 110Z" fill="white" fill-opacity="0.9"/>
    
    <!-- Top Petals -->
    <path d="M100 65C85 80 75 95 75 110C75 125 85 135 100 135C115 135 125 125 125 110C125 95 115 80 100 65Z" fill="white"/>
    
    <!-- Center Circle -->
    <circle cx="100" cy="110" r="15" fill="#4A90E2"/>
  </g>
  
  <!-- Person Meditating -->
  <g filter="url(#shadow)">
    <!-- Head -->
    <circle cx="100" cy="90" r="12" fill="white"/>
    
    <!-- Body -->
    <path d="M85 125C85 115 90 110 100 110C110 110 115 115 115 125C115 130 110 135 100 135C90 135 85 130 85 125Z" fill="white"/>
  </g>
  
  <!-- Subtle Glow Effects -->
  <circle cx="100" cy="100" r="70" fill="white" fill-opacity="0.1"/>
  <circle cx="100" cy="100" r="50" fill="white" fill-opacity="0.05"/>
</svg> 