<?xml version="1.0" encoding="UTF-8"?>
<svg width="50" height="50" viewBox="0 0 50 50" fill="none" xmlns="http://www.w3.org/2000/svg">
  <circle cx="25" cy="25" r="23" fill="#4A90E2"/>
  <path d="M25 15C21.13 15 18 18.13 18 22C18 25.87 21.13 29 25 29C28.87 29 32 25.87 32 22C32 18.13 28.87 15 25 15ZM25 27C22.24 27 20 24.76 20 22C20 19.24 22.24 17 25 17C27.76 17 30 19.24 30 22C30 24.76 27.76 27 25 27Z" fill="white"/>
  <path d="M25 31C20.03 31 16 35.03 16 40H18C18 36.13 21.13 33 25 33C28.87 33 32 36.13 32 40H34C34 35.03 29.97 31 25 31Z" fill="white"/>
</svg> 