<?xml version="1.0" encoding="UTF-8"?>
<svg width="50" height="50" viewBox="0 0 50 50" fill="none" xmlns="http://www.w3.org/2000/svg">
  <circle cx="25" cy="25" r="23" fill="#F5A623"/>
  <path d="M32 22C33.66 22 34.99 20.66 34.99 19C34.99 17.34 33.66 16 32 16C30.34 16 29 17.34 29 19C29 20.66 30.34 22 32 22ZM18 22C19.66 22 20.99 20.66 20.99 19C20.99 17.34 19.66 16 18 16C16.34 16 15 17.34 15 19C15 20.66 16.34 22 18 22ZM18 24C15.67 24 11 25.17 11 27.5V30H25V27.5C25 25.17 20.33 24 18 24ZM32 24C31.71 24 31.38 24.02 31.03 24.05C32.19 25.19 33 26.51 33 27.5V30H39V27.5C39 25.17 34.33 24 32 24Z" fill="white"/>
</svg> 