<svg width="146" height="115" xmlns="http://www.w3.org/2000/svg" xmlns:xlink="http://www.w3.org/1999/xlink" xml:space="preserve" overflow="hidden"><g transform="translate(-417 -1081)"><g><path d="M560 1193C560 1193 560 1120.91 560 1120.91 560 1100.69 540.504 1084.08 515.574 1082.19L515.574 1082C514.776 1082 513.984 1082.02 513.195 1082.05 512.406 1082.02 511.613 1082 510.815 1082 510.815 1082 510.815 1082.19 510.815 1082.19 488.973 1083.84 471.314 1096.8 467.272 1113.59 462.94 1095.6 442.968 1082 419 1082 419 1082 419 1154.09 419 1154.09 419 1175.11 440.044 1192.23 466.39 1192.97L466.39 1193C466.686 1193 466.977 1192.99 467.272 1192.98 467.566 1192.99 467.858 1193 468.154 1193 468.154 1193 468.154 1192.97 468.154 1192.97 489.266 1192.38 506.986 1181.27 513.195 1166.06 519.576 1181.69 538.114 1193 560 1193Z" fill="#FF2D01" fill-rule="evenodd" fill-opacity="1"/></g></g></svg>