<svg width="986" height="138" xmlns="http://www.w3.org/2000/svg" xmlns:xlink="http://www.w3.org/1999/xlink" xml:space="preserve" overflow="hidden"><g transform="translate(-1411 -1122)"><g><path d="M1456.25 1125C1433.56 1125 1415 1141.63 1415 1161.95L1415 1221.05C1415 1241.37 1433.56 1258 1456.25 1258 1478.94 1258 1497.5 1241.37 1497.5 1221.05 1497.5 1241.37 1516.06 1258 1538.75 1258 1561.44 1258 1580 1241.37 1580 1221.05L1580 1161.95C1580 1141.63 1561.44 1125 1538.75 1125 1516.06 1125 1497.5 1141.63 1497.5 1161.95 1497.5 1141.63 1478.94 1125 1456.25 1125Z" fill="#E1F37E" fill-rule="evenodd" fill-opacity="1"/><path d="M1619.25 1125C1596.56 1125 1578 1141.63 1578 1161.95L1578 1221.05C1578 1241.37 1596.56 1258 1619.25 1258 1641.94 1258 1660.5 1241.37 1660.5 1221.05 1660.5 1241.37 1679.06 1258 1701.75 1258 1724.44 1258 1743 1241.37 1743 1221.05L1743 1161.95C1743 1141.63 1724.44 1125 1701.75 1125 1679.06 1125 1660.5 1141.63 1660.5 1161.95 1660.5 1141.63 1641.94 1125 1619.25 1125Z" fill="#E1F37E" fill-rule="evenodd" fill-opacity="1"/><path d="M1782.25 1125C1759.56 1125 1741 1141.63 1741 1161.95L1741 1221.05C1741 1241.37 1759.56 1258 1782.25 1258 1804.94 1258 1823.5 1241.37 1823.5 1221.05 1823.5 1241.37 1842.06 1258 1864.75 1258 1887.44 1258 1906 1241.37 1906 1221.05L1906 1161.95C1906 1141.63 1887.44 1125 1864.75 1125 1842.06 1125 1823.5 1141.63 1823.5 1161.95 1823.5 1141.63 1804.94 1125 1782.25 1125Z" fill="#E1F37E" fill-rule="evenodd" fill-opacity="1"/><path d="M1947.25 1125C1924.56 1125 1906 1141.63 1906 1161.95L1906 1221.05C1906 1241.37 1924.56 1258 1947.25 1258 1969.94 1258 1988.5 1241.37 1988.5 1221.05 1988.5 1241.37 2007.06 1258 2029.75 1258 2052.44 1258 2071 1241.37 2071 1221.05L2071 1161.95C2071 1141.63 2052.44 1125 2029.75 1125 2007.06 1125 1988.5 1141.63 1988.5 1161.95 1988.5 1141.63 1969.94 1125 1947.25 1125Z" fill="#E1F37E" fill-rule="evenodd" fill-opacity="1"/><path d="M2109.25 1125C2086.56 1125 2068 1141.63 2068 1161.95L2068 1221.05C2068 1241.37 2086.56 1258 2109.25 1258 2131.94 1258 2150.5 1241.37 2150.5 1221.05 2150.5 1241.37 2169.06 1258 2191.75 1258 2214.44 1258 2233 1241.37 2233 1221.05L2233 1161.95C2233 1141.63 2214.44 1125 2191.75 1125 2169.06 1125 2150.5 1141.63 2150.5 1161.95 2150.5 1141.63 2131.94 1125 2109.25 1125Z" fill="#E1F37E" fill-rule="evenodd" fill-opacity="1"/><path d="M2272.25 1125C2249.56 1125 2231 1141.63 2231 1161.95L2231 1221.05C2231 1241.37 2249.56 1258 2272.25 1258 2294.94 1258 2313.5 1241.37 2313.5 1221.05 2313.5 1241.37 2332.06 1258 2354.75 1258 2377.44 1258 2396 1241.37 2396 1221.05L2396 1161.95C2396 1141.63 2377.44 1125 2354.75 1125 2332.06 1125 2313.5 1141.63 2313.5 1161.95 2313.5 1141.63 2294.94 1125 2272.25 1125Z" fill="#E1F37E" fill-rule="evenodd" fill-opacity="1"/></g></g></svg>