<svg width="265" height="266" xmlns="http://www.w3.org/2000/svg" xmlns:xlink="http://www.w3.org/1999/xlink" xml:space="preserve" overflow="hidden"><g transform="translate(-1242 -1494)"><g><g><g><g><path d="M176.073 238.092C115.571 263.204 3.52439 214.694 0.14685 137.745-2.937 66.0334 37.4956 20.51 99.8578 2.4475 109.452-0.24475 119.487-0.734249 129.326 1.02795 159.234 6.16769 223.505 22.9086 238.288 72.4948 257.721 137.745 236.624 212.981 176.073 238.092ZM228.009 80.7674C214.548 35.7824 155.954 20.6569 128.738 15.9577 119.829 14.3423 110.627 14.7829 101.914 17.2304 45.0829 33.6286 8.22359 74.8934 11.0627 139.899 14.0976 209.604 116.207 253.561 171.325 230.848 226.442 208.135 245.729 139.899 228.009 80.7674Z" fill="#D6E8F7" fill-rule="nonzero" fill-opacity="1" transform="matrix(1 0 0 1.00023 1249.11 1495.73)"/></g></g></g></g></g></svg>