<svg width="92" height="87" xmlns="http://www.w3.org/2000/svg" xmlns:xlink="http://www.w3.org/1999/xlink" xml:space="preserve" overflow="hidden"><g transform="translate(-673 -953)"><g><path d="M710.314 977.029C710.314 965.423 714.206 956 719 956 723.794 956 727.686 965.423 727.686 977.029 735.893 968.822 745.308 964.911 748.698 968.302 752.088 971.691 748.178 981.107 739.971 989.314 751.577 989.314 761 993.206 761 998 761 1002.79 751.577 1006.69 739.971 1006.69 748.178 1014.89 752.088 1024.31 748.698 1027.7 745.308 1031.09 735.893 1027.18 727.686 1018.97 727.686 1030.58 723.794 1040 719 1040 714.206 1040 710.314 1030.58 710.314 1018.97 702.107 1027.18 692.691 1031.09 689.301 1027.7 685.911 1024.31 689.822 1014.89 698.029 1006.69 686.423 1006.69 677 1002.79 677 998 677 993.206 686.423 989.314 698.029 989.314 689.822 981.107 685.911 971.691 689.301 968.302 692.691 964.911 702.107 968.822 710.314 977.029Z" fill="#FFA981" fill-rule="evenodd" fill-opacity="1"/><path d="M719 983C710.716 983 704 989.716 704 998 704 1006.28 710.716 1013 719 1013 727.284 1013 734 1006.28 734 998 734 989.716 727.284 983 719 983Z" fill="#FF78E5" fill-rule="evenodd" fill-opacity="1"/></g></g></svg>