<svg width="115" height="82" xmlns="http://www.w3.org/2000/svg" xmlns:xlink="http://www.w3.org/1999/xlink" xml:space="preserve" overflow="hidden"><g transform="translate(-146 -490)"><g><path d="M209.237 571 168.764 571C156.778 571 147 561.08 147 548.92L147 513.08C147 500.92 156.778 491 168.764 491L209.237 491C221.222 491 231 500.92 231 513.08L231 549C230.921 561.08 221.143 571 209.237 571Z" fill="#FFA981" fill-rule="evenodd" fill-opacity="1"/><path d="M239.218 571 203.782 571C191.786 571 182 561.08 182 548.92L182 513.08C182 500.92 191.786 491 203.782 491L239.218 491C251.214 491 261 500.92 261 513.08L261 549C260.921 561.08 251.135 571 239.218 571Z" fill="#CEEF32" fill-rule="evenodd" fill-opacity="1"/><path d="M240.987 531.369 204.006 552.107 204.346 510.036 240.987 531.369Z" fill="#000000" fill-rule="evenodd" fill-opacity="1"/></g></g></svg>