<svg width="298" height="293" xmlns="http://www.w3.org/2000/svg" xmlns:xlink="http://www.w3.org/1999/xlink" xml:space="preserve" overflow="hidden"><g transform="translate(-838 -1434)"><g><g><g><g><path d="M27.0892 206.135C27.3283 206.284 27.5708 206.433 27.8212 206.546 27.5147 205.936 28.1037 206.375 28.3361 206.06 28.5579 205.761 26.9717 205.202 30.0799 205.761 33.4373 206.365 36.5101 205.611 39.8147 205.351 40.7404 205.278 43.9962 205.033 44.7288 204.716 45.3146 204.461 45.4535 204.68 45.6251 204.567L48.1944 203.745C51.4883 202.68 57.1658 199.102 59.1908 196.538L60.4677 194.634 58.9403 194.298C54.4095 193.74 51.7775 193.959 47.3235 195.007L43.2829 196.314C41.2292 197.19 42.3746 196.457 40.0718 197.882L37.936 199.114C37.4104 199.482 35.4048 200.877 34.8217 201.018 33.7659 201.275 29.9103 204.43 29.2357 204.192 28.8551 204.058 28.2206 204.477 28.0296 204.528 27.4432 204.864 27.4398 204.901 27.1406 205.349 27.0545 205.088 27.0471 204.752 26.7747 204.528 26.611 204.38 26.9971 203.835 26.778 203.221 26.5215 202.5 27.1527 202.142 26.9496 200.682 26.8608 200.043 27.8993 198.97 28.4396 197.769 29.36 195.724 31.0911 194.43 31.24 193.923 31.4757 193.119 32.1055 193.099 32.2819 192.541 32.2932 192.504 32.3119 192.466 32.342 192.466 32.6398 192.39 33.3257 191.33 33.5595 191.047L34.8217 190.113C37.1666 188.061 39.623 186.753 42.8054 185.856 43.2048 185.744 43.5821 185.558 43.9782 185.446 49.3257 183.909 56.6629 183.145 62.0399 184.885L65.3144 186.08C66.188 186.641 67.2151 186.864 68.0887 187.425 68.466 187.686 68.8614 187.91 69.2615 188.134 71.2671 189.254 72.1219 191.644 71.3826 193.735 70.3594 196.662 70.6667 196.194 68.8474 199.224 66.2621 203.529 60.3969 207.663 55.6477 209.604 55.4721 209.679 55.3005 209.754 55.1322 209.828 51.1497 211.747 45.9029 212.654 41.4957 212.741 41.0262 212.75 40.7357 212.596 40.2221 212.703 39.3979 212.876 39.2377 212.373 38.9117 212.293 38.0068 212.142 36.1768 211.923 34.8865 211.471 33.122 210.854 33.4393 210.745 31.9666 210.388 31.1892 210.2 30.4332 210.174 30.3758 209.753 30.2629 208.928 27.0451 208.869 26.2571 205.87 26.2384 205.795 26.2644 205.721 26.2798 205.646 26.6377 205.761 26.8394 205.948 27.0892 206.135ZM25.5511 138.848C25.4583 138.175 25.5518 137.056 25.9659 136.569L26.6865 138.212C26.788 137.706 26.6498 137.911 27.3737 138.138 27.5714 137.988 27.3811 137.764 27.512 137.615 27.8733 137.615 29.4822 139.586 30.5628 140.341 32.1309 141.436 33.7024 142.498 35.4242 143.328 36.3625 143.78 40.0585 146.227 41.4249 146.689 42.1596 146.841 41.9712 147.09 42.239 147.1L44.8083 147.921C47.5118 148.687 50.3202 149.041 53.1279 149.079 55.8888 149.116 57.6787 148.807 60.077 147.809L59.0498 146.614C57.8136 145.348 55.1642 143.376 53.6542 142.469 51.5798 141.223 46.514 139.136 43.8446 138.661L39.2216 138.175C38.6606 138.175 36.1 138.06 35.5958 137.839 34.7523 137.469 33.5354 137.792 32.5336 137.578 31.9179 137.446 29.6298 137.577 29.199 137.167 28.622 136.618 27.4779 136.596 26.8314 136.831 26.9176 136.57 27.0999 136.308 27.0218 135.972 26.9677 135.721 27.528 135.653 27.7945 134.89 28.057 134.139 28.7776 134.226 29.4187 132.986 29.756 132.333 31.1619 132.194 32.346 131.492 34.2895 130.342 36.4213 130.386 36.8868 129.998 37.2307 129.721 39.0313 129.481 39.5455 129.364 40.914 128.94 40.0919 129.028 41.5471 129.028L43.9929 128.953C46.2602 128.9 49.8981 129.857 52.1628 130.671 57.7448 132.676 63.4137 136.145 67.0916 140.864 67.5918 141.506 68.7753 143.065 69.0371 143.74 69.4218 144.711 70.109 145.495 70.475 146.466 70.6279 146.914 70.8183 147.325 71.0126 147.735 71.9723 149.827 71.2551 152.254 69.4258 153.523 66.1359 155.753 64.1904 156.872 60.0162 157.556 55.7272 158.258 51.5865 158.027 47.3656 157.07L42.8955 155.875C39.9369 154.858 36.6236 153.071 34.0798 151.282 33.6603 150.988 33.6537 150.765 33.0713 150.498 32.2712 150.132 32.5283 149.623 32.2465 149.416 31.9326 149.117 31.608 148.855 31.3615 148.482 31.3335 148.44 29.0855 146.324 28.4189 144.599 28.107 143.79 26.5469 142.875 26.8508 142.32 27.1533 141.767 25.8109 140.578 25.5511 138.848ZM303.117 204.492C303.117 204.454 303.125 204.454 303.136 204.454 303.14 204.492 303.199 204.492 303.117 204.492ZM301.314 203.857C301.314 203.857 300.439 204.238 300.187 204.006 299.775 203.628 298.971 204.72 298.192 204.641 297.405 204.561 293.694 204.963 293.357 204.679 292.864 204.262 292.924 204.544 291.625 204.38 290.417 204.229 289.965 204.322 288.395 204.007 285.562 203.438 280.978 201.8 278.806 200.012 276.57 198.171 275.293 197.282 273.623 194.672 278.32 193.604 281.173 193.487 286.125 194.859 286.405 194.934 286.726 194.934 287.002 195.083 287.536 195.344 288.085 195.531 288.641 195.755 289.906 196.204 291.571 197.158 293.089 197.659 293.418 197.768 293.392 198.106 294.762 198.443 295.339 198.585 295.285 198.816 295.411 198.816 295.958 198.816 296.005 199.377 296.566 199.377 297.05 199.377 298.366 201.029 299.333 201.655 300.307 202.285 300.469 203.393 300.994 203.522 301.185 203.56 301.345 203.634 301.491 203.709 301.434 203.745 301.374 203.783 301.314 203.857ZM303.801 196.053C303.493 194.734 301.486 192.66 300.518 191.721 298.145 189.418 293.101 186.52 289.921 185.448 284.462 183.606 279.275 183.24 273.607 184.403 271.766 184.78 268.074 186.247 266.419 187.091L263.88 188.659C262.124 189.742 261.37 191.983 262.192 193.962 263.381 196.657 263.895 197.71 265.717 199.899 266.243 200.533 266.703 201.243 267.353 201.728L268.312 202.737C272.65 206.988 276.76 209.315 282.554 210.803 283.405 211.021 285.086 211.486 285.903 211.437 286.189 211.42 286.038 211.72 287.031 211.661 288.239 211.59 292.206 212.46 295.653 211.251 297.514 210.598 298.842 209.927 300.459 208.824 300.761 208.617 304.775 205.466 304.036 205.09 303.839 204.989 303.674 205.274 303.393 204.791L303.106 204.53C303.106 204.493 303.113 204.493 303.113 204.493L303.953 204.754 304.543 204.455C305.098 203.763 305.364 203.623 305.413 202.476 305.551 199.297 304.238 197.682 303.801 196.053ZM275.295 145.494C276.568 144.06 277.975 142.946 279.653 141.984 280.571 141.458 283.924 139.741 284.851 139.595 285.433 139.483 286.004 139.334 286.568 139.147L291.295 138.101 292.431 137.989C293.909 137.427 293.655 137.714 293.853 137.653 294.728 137.38 294.641 137.71 295.116 137.429 295.568 137.16 297.639 137.691 298.697 137.615 299.701 137.544 300.658 138.375 301.124 138.138 301.303 138.063 301.474 138.026 301.639 138.026L301.068 138.922C300.819 139.228 300.64 138.813 300.432 139.221 299.675 140.714 300.115 140.293 298.311 141.685 297.981 141.94 296.019 143.628 295.627 143.589 295.071 143.535 295.121 143.793 294.077 144.373 293.483 144.747 292.897 145.158 292.263 145.493 289.758 146.876 286.658 147.631 283.898 148.22L281.139 148.407C278.182 148.252 276.764 148.221 273.809 147.137L275.295 145.494ZM303.424 137.689C303.424 137.689 303.42 137.689 303.424 137.652 303.435 137.653 303.491 137.653 303.424 137.689ZM263.051 146.353 262.387 147.996C261.618 149.937 262.319 152.178 264.146 153.298 266.502 154.665 267.913 155.401 270.501 156.024 271.297 156.211 272.07 156.509 272.895 156.547L274.269 156.808C279.697 157.848 287.044 156.758 292.013 154.269 292.55 154.007 293.151 153.895 293.611 153.447 293.865 153.247 293.814 153.607 294.649 152.962L296.501 151.841C301.46 148.7 303.665 145.075 304.656 139.258 305.107 136.61 304.315 138.168 303.812 137.764L303.424 137.727C303.483 137.53 304.154 137.442 304.26 137.428L304.555 136.831C304.586 135.604 304.755 136.043 304.339 135.188 303.745 133.969 301.949 132.214 300.776 131.566 300.179 131.23 299.567 130.931 299.003 130.483 297.304 129.039 291.679 128.518 289.317 128.803L287.688 128.952C287.122 128.808 282.438 129.796 281.546 130.072 275.573 131.927 270.172 135.456 266.438 140.528L263.507 145.233C263.324 145.606 263.219 146.017 263.051 146.353ZM94.1414 44.9359C94.3705 44.0176 93.6699 42.4127 94.2309 42.1355 94.5528 41.9766 94.6717 40.717 94.6717 40.7163 94.484 39.2604 96.1243 36.9823 96.8897 36.9823 96.8796 37.4625 96.5751 37.9514 96.4829 38.7748 96.7795 38.4035 96.7007 38.5832 97.088 39.1108 97.4587 39.0573 97.5856 37.7236 97.9395 40.6415 98.3489 44.0182 100.402 47.2814 101.565 50.425L103.41 54.2713C103.968 54.9171 103.618 54.875 103.828 55.0553 103.954 55.1635 105.848 58.1736 107.999 60.1338 110.747 62.6389 112.038 63.8044 115.65 65.5107L117.831 66.1452C117.831 64.2351 116.638 59.8686 115.784 58.0427 114.764 55.8615 112.709 52.1728 111.012 50.3135 109.477 48.6312 110.913 49.8113 108.525 47.7369L106.673 46.0939C106.283 45.8609 104.207 44.1705 103.906 43.7043 103.343 42.8288 102.317 42.4394 101.595 41.6881 101.113 41.1872 99.1564 39.8327 99.1116 39.3358 99.0522 38.6747 98.2287 37.91 97.4273 37.6929 98.5152 37.0023 97.9215 37.0197 98.57 36.9836 99.6613 36.9228 99.2833 36.4981 100.075 36.4981 102.022 36.4981 101.336 35.5838 103.659 36.3492 105.647 37.0043 105.278 36.2229 109.107 37.9921 109.629 38.2332 109.747 37.9587 110.35 38.328 111.084 38.7782 110.9 38.5638 111.277 38.7014 111.762 39.1121 112.405 39.2243 113.009 39.4106L114.298 40.3443C119.027 42.7787 123.863 50.5346 125.56 55.3178 126.916 59.1427 127.754 62.1053 127.595 66.2962 127.561 66.8939 127.636 67.5284 127.468 68.1254 127.206 69.1339 127.311 70.1791 127.034 71.1876 126.9 71.6357 126.811 72.0839 126.717 72.532 126.204 75.0185 124.119 76.3589 121.598 76.266 118.314 76.1451 116.645 75.862 113.603 74.6979 109.876 73.1117 106.13 70.4877 103.357 67.5284 99.8577 63.793 97.8153 61.1075 95.8104 56.2889 95.2247 54.8817 94.9582 54.3033 94.6116 52.8908 94.456 52.2563 94.0599 52.0119 94.3725 51.3227 94.5468 50.9386 93.5811 47.397 94.1414 44.9359ZM215.692 62.7845C216.137 60.1498 216.146 59.7812 217.137 57.3702 217.507 56.4712 219.355 53.015 219.916 52.4039 220.326 51.9558 220.692 51.5077 221.058 51.0595 221.719 50.0884 222.638 49.4166 223.317 48.5203 224.515 46.9916 224.654 47.1839 225.117 46.6904 225.382 46.317 225.565 45.7941 226.013 45.6077 226.032 45.6077 226.046 45.6077 226.058 45.5703 226.185 45.1723 226.764 45.1028 226.958 44.6367 227.084 44.3335 228.612 43.5147 228.702 43.4793 229.743 43.0692 230.242 42.2825 230.943 42.2097 232.16 42.0834 232.235 41.6079 232.59 41.276 232.703 41.5024 232.763 42.4394 232.477 42.583 231.953 42.8475 232.778 43.9007 232.466 44.6741 232.248 45.2157 231.388 49.1087 231.002 49.3044 230.431 49.5936 230.61 49.9689 230.464 50.387 230.401 50.5366 230.281 50.7229 230.218 50.8725 229.06 53.8211 228.369 54.8937 226.543 57.3321 224.076 60.6293 220.58 63.2594 216.712 64.6138L215.48 65.0246 215.692 62.7845ZM233.798 39.8955C233.81 39.8955 233.84 39.8955 233.84 39.8955L233.798 39.8955ZM205.808 67.8256 206.742 72.4185C207.242 74.4348 209.143 75.854 211.267 75.667 214.371 75.3497 215.187 75.2636 218.022 74.1362 222.386 72.4004 226.53 69.8686 229.758 66.4438 231.166 64.9504 233.559 61.8375 234.4 60.0957 234.665 59.5354 235.087 59.0872 235.207 58.4902 235.296 58.0908 235.549 58.3352 235.759 57.4824L236.592 55.4661C238.012 51.505 238.459 49.2302 237.458 45.0481 237.215 44.0303 235.863 39.9576 234.893 39.223 234.597 38.9986 234.832 39.6137 234.172 39.7459L233.945 39.8207C234.049 39.5589 234.168 39.41 234.351 39.223L234.251 38.5878 233.537 37.6542C232.342 36.8193 229.573 36.4026 228.093 36.5715 227.41 36.6464 226.748 36.7953 226.013 36.7212 224.042 36.6216 220.08 38.8416 218.284 40.1566L215.984 42.1355C215.062 42.6665 212.417 45.6732 211.66 46.691 209.424 49.6984 208.357 51.702 207.071 55.3913 205.534 59.7985 205.476 63.2821 205.808 67.8256ZM220.434 249.711C218.343 254.941 214.113 262.703 211.417 267.037L207.627 272.675C206.033 275.102 204.188 277.342 202.537 279.732L199.852 283.354C199.434 283.877 198.933 284.362 198.557 284.922 197.941 285.893 197.418 286.901 196.544 287.685 196.155 288.156 196.518 287.947 195.394 289.142 194.516 290.073 194.823 290.075 193.978 291.046 192.252 293.033 190.3 294.7 188.359 296.908 186.759 298.728 184.426 300.127 183.829 301.165 183.516 301.688 183.128 302.174 182.698 302.659 182.536 301.216 181.502 297.032 181.761 296.423 182.089 295.651 180.39 291.609 180.051 289.852 179.175 285.351 177.122 280 175.368 275.699 174.933 274.632 175.468 274.787 174.312 272.637L172.179 268.306 170.484 265.132C172.095 262.795 171.24 263.56 173.102 261.173 173.699 260.408 173.786 260.962 174.248 260.165 174.881 259.073 175.77 257.303 176.671 256.394 177.579 255.497 178.333 254.452 179.188 253.481 180.061 252.547 180.894 251.577 181.723 250.606 182.056 250.233 182.321 249.784 182.675 249.411L184.755 247.357C185.919 246.818 186.138 246.035 186.85 245.266 187.186 244.93 187.544 244.631 187.877 244.295 190.201 241.893 192.129 239.804 194.706 237.536 205.036 228.448 214.46 222.035 227.506 218.082 227.517 219.991 227.364 224.458 227.051 226.185 226.717 228.025 226.73 229.605 226.188 231.263 225.863 232.234 225.766 233.279 225.493 234.288 223.939 240.071 222.619 244.132 220.434 249.711ZM179.158 304.863 179.45 304.975C179.975 305.322 180.006 304.888 180.256 305.199L180.264 305.199C179.916 304.154 179.603 303.108 179.308 302.025 177.333 294.637 171.89 283.922 168.315 277.194 168.001 276.596 167.721 275.962 167.415 275.364 165.482 271.676 163.879 268.97 161.747 265.432 161.101 264.361 160.355 263.641 159.872 262.519 159.804 262.37 159.7 262.183 159.588 262.071 158.662 260.988 157.96 259.756 157.128 258.598 156.355 257.627 155.612 256.582 154.858 255.573 149.264 248.179 140.015 238.343 132.886 232.721 126.928 228.021 127.057 228.186 120.724 224.319 119.223 223.403 117.572 222.771 116.225 222.004 113.629 220.528 107.614 218.172 104.754 217.374 104.917 226.503 107.909 238.282 111.396 246.685 114.267 253.602 116.512 258.196 119.992 264.459 121.305 266.758 123.057 269.235 124.181 271.33 124.856 272.572 131.654 281.627 132.803 283.055 134.23 284.827 138.839 290.308 139.801 291.793 141.311 294.123 147.219 300.381 149.461 303.182 152.598 307.1 160.248 301.404 172.616 303.107L177.754 303.593C177.926 303.634 178.056 303.292 178.221 303.78 178.3 304.013 179.17 304.03 179.513 304.228L178.964 304.601 179.095 304.862C179.117 304.863 179.143 304.863 179.158 304.863ZM143.528 304.714C142.94 304.162 139.668 304.874 137.602 304.526 136.389 304.35 125.396 303.193 124.159 302.771 122.92 302.119 122.198 302.365 120.907 302.136 112.962 300.757 109.636 300.292 101.366 297.879 87.768 293.911 79.4664 289.331 68.0627 280.815 63.3061 277.262 60.5358 275.106 55.4861 272.002L47.077 267.634 40.4118 265.02C46.0773 262.288 51.7621 259.843 57.9091 258.559 60.8317 257.949 61.76 257.624 64.9551 257.14 68.1435 256.658 71.3272 256.099 74.5443 255.833 75.2876 255.796 76.0303 255.833 76.7663 255.721 78.3418 255.41 78.9007 255.254 80.523 255.348 80.545 255.349 81.4553 255.161 82.558 255.198 84.221 255.254 83.9752 255.049 85.1646 255.049L90 255.348C92.3635 255.621 94.5521 255.392 97.098 255.871 97.9215 256.026 100.27 256.504 101.011 256.394 102.154 256.207 103.353 256.207 104.543 256.468 107.734 263.357 113.177 273.29 117.877 279.134L123.224 285.743C124.285 286.789 125.416 287.685 126.35 288.917 126.391 288.955 126.451 289.029 126.51 289.067 127.32 289.608 128.323 291.161 129.453 291.905 130.221 292.411 134.478 296.912 136.062 298.215L140.591 301.837C142.531 303.504 142.696 303.945 144.971 304.937 144.507 304.913 143.838 304.943 143.528 304.714ZM169.502 260.017 171.6 255.461C175.351 248.238 177.936 244.003 183.377 238.098 182.713 236.653 182.315 237.506 182.044 235.409 181.912 234.387 181.175 233.548 180.928 232.422 180.87 232.159 180.351 230.208 180.072 229.958 179.558 229.495 179.838 229.165 179.337 228.538 179.187 228.323 179.518 228.421 178.467 226.933 178.276 226.672 178.25 226.335 178.134 225.999L177.23 223.983 174.938 217.934C174.818 217.598 174.612 217.261 174.463 216.925 173.383 214.353 171.646 210.803 170.259 208.412L166.473 202.773C161.134 209.446 157.937 215.846 155.029 223.758L153.949 226.895C153.712 227.488 154.005 227.784 153.341 228.24 153.071 228.425 152.079 231.681 151.911 232.086 150.972 234.345 151.066 233.749 150.865 236.044 150.807 236.704 150.538 235.905 150.212 237.09L154.039 241.421C156.258 243.85 158.226 246.596 160.212 249.188 163.273 253.183 166.082 257.576 168.617 261.921L169.502 260.017ZM145.085 227.68C145.287 229.211 145.388 230.667 145.411 232.049 145.732 232.385 146.042 232.683 146.348 233.02L146.296 228.389C146.432 225.08 148.118 220.633 148.218 219.801 148.336 218.83 148.588 219.011 148.606 218.681L149.656 215.358C151.914 208.689 154.059 204.892 157.695 199.04 160.029 195.283 160.271 194.822 163.064 191.535 164.651 189.705 167.425 189.518 169.259 191.087L170.82 192.767C171.092 193.065 171.417 193.29 171.675 193.588L177.224 200.646C179.285 203.664 182.312 209.117 183.542 212.371 184.097 213.84 185.801 218.339 186.029 219.839L186.932 222.676C187.405 224.605 188.455 229.319 188.064 230.966L187.899 233.356C188.505 232.765 188.279 233.014 188.463 231.638 188.846 228.775 188.306 229.006 188.754 225.701 189.15 222.638 189.438 219.688 189.478 216.851 189.508 214.976 190.596 209.028 190.972 207.142 191.461 204.715 191.849 202.213 192.227 199.786 193.507 191.521 195.08 185.507 197.174 177.531 197.762 175.289 198.153 173.265 198.933 171.034 200.538 166.44 200.604 165.947 202.812 161.25 205.372 155.805 206.083 155.636 209.694 151.915L218.42 142.804C223.995 136.941 229.843 131.34 235.511 125.552 238.465 122.528 241.459 119.578 244.48 116.628L252.053 109.011C253.864 107.23 254.565 104.56 253.745 102.103 252.143 97.3051 246.349 96.4736 243.315 99.1531L239.816 102.364 210.221 129.66C203.927 135.434 197.23 142.192 189.232 145.679 184.177 147.882 179.097 149.66 173.594 150.347 160.832 151.941 149.114 149.662 138.109 142.692 133.65 139.868 131.606 137.859 127.788 134.327L99.5965 108.152C98.3883 107.031 90.0975 99.1457 88.9842 98.4064 84.3799 95.3462 78.8326 99.0796 78.484 103.037 78.1962 106.304 78.9749 107.757 81.1314 109.907L96.9304 125.889 124.521 153.708C127.541 156.766 130.596 161.183 131.675 165.283 131.791 165.694 131.978 166.217 132.154 166.665 135.619 175.495 138.968 189.287 140.316 198.367 140.749 201.299 143.219 211.426 142.997 212.855 142.877 213.63 143.741 219.397 143.983 220.584 144.473 222.938 144.779 225.328 145.085 227.68ZM311.396 264.274C302.996 258.589 295.759 254.644 286.24 251.354 280.016 249.304 270.142 246.9 264.067 246.836 262.599 246.836 261.135 246.686 259.671 246.798L256.154 246.724C254.791 246.873 253.462 247.246 252.05 247.172 251.982 247.172 251.908 247.172 251.841 247.209 251.159 247.494 249.47 247.21 248.103 247.732L245.821 248.031C243.48 248.236 239.842 248.761 237.618 249.375 235.383 249.992 232.346 250.277 230.774 250.906 233.248 244.349 234.111 240.603 235.59 233.692 236.457 229.643 237.207 223.499 237.185 219.39 237.17 218.307 237.077 217.187 237.152 216.067L236.539 210.316C235.998 208.188 233.81 206.881 231.655 207.404 225.604 208.957 223.588 209.568 217.716 212.034 214.618 213.336 210.771 215.459 207.873 217.187L201.712 221.369C199.482 223.008 192.588 228.616 190.63 230.667 191.038 229.77 191.104 230.135 191.339 229.286 191.78 227.755 192.258 226.298 192.665 224.693L195.951 211.474C197.553 205.477 199.072 198.065 200.984 192.356 201.298 191.422 201.623 190.415 201.899 189.406 203.634 183.255 208.371 166.969 213.224 161.55L218.59 156.285C222.003 152.924 225.382 149.526 228.773 146.129 229.067 145.83 229.355 145.531 229.658 145.27 232.145 142.992 234.527 140.565 236.935 138.175L258.612 116.741C260.714 114.662 262.082 113.064 263.204 110.057 267.643 98.1726 257.757 85.4365 244.419 87.802 238.936 88.7745 236.016 92.1238 232.16 95.6808L196.16 129.176C193.575 131.605 191.491 133.276 188.296 135.15 189.983 130.844 190.248 125.795 189.226 121.297L188.726 119.729C188.747 119.086 188.313 118.553 188.02 117.75 187.121 115.285 184.539 111.539 182.392 109.834 179.806 107.779 175.728 106.321 172.444 106.212 171.19 106.17 168.453 106.134 167.325 106.66 166.788 106.91 167.57 106.984 167.661 107.22 167.311 107.972 167.217 107.447 167.572 107.892 167.265 107.953 166.658 108.032 166.448 108.265 167.887 109.954 170.657 109.267 170.902 110.132 171.071 110.728 172.692 110.447 173.486 111.178 174.219 111.806 178.043 114.613 178.027 115.397 178.014 116.053 178.411 116.095 178.811 116.667 180.838 119.561 181.658 122.577 181.679 126.039 181.712 131.301 178.181 136.668 173.397 138.81 171.555 139.634 169.594 140.237 167.59 140.49 164.996 140.819 166.328 140.49 164.117 140.49 163.136 140.49 163.194 140.236 162.198 140.005 159.599 139.403 155.429 136.371 154.114 134.068 152.835 131.853 151.855 129.755 151.743 127.01 151.739 126.637 151.608 126.264 151.661 125.928 152.075 123.081 151.737 123.363 152.8 120.29L153.797 117.788C153.939 117.489 154.234 117.265 154.339 116.966 154.685 115.959 154.417 116.254 155.13 115.436 155.153 115.398 155.163 115.361 155.171 115.361 155.268 114.753 155.865 114.723 156.09 114.016 156.326 113.276 159.117 111.608 159.7 111.104 160.737 110.208 162.276 110.202 162.688 109.685 163.464 108.71 164.532 108.897 164.887 108.378 165.23 107.875 165.617 108.159 165.712 107.929 165.88 107.594 166.156 107.519 166.448 107.369 165.733 106.953 165.957 106.839 165.577 106.548 164.545 105.757 164.991 105.456 163.445 105.129 161.69 104.758 159.124 104.607 157.388 105.092L154.644 105.838C153.21 106.045 150.199 108.054 149.244 109.012 146.147 112.121 145.153 113.392 143.527 117.339 141.169 122.555 140.969 129.123 143.004 134.404 137.874 131.342 133.265 126.389 128.625 122.492L123.311 117.676 96.7915 93.5537 94.8013 91.8359C85.534 84.9736 72.9882 89.9486 70.4516 100.387 69.0491 106.16 70.7902 111.308 74.9136 115.398L84.9509 125.293C87.012 127.31 89.0583 129.363 91.1307 131.379 93.4455 133.583 95.6488 135.972 98.0384 138.101 98.3369 138.362 98.6582 138.699 98.912 138.96 100.918 141.174 102.45 142.51 104.521 144.524L120.585 160.393C125.198 164.99 130.742 182.707 132.594 189.033 135.86 200.195 138.942 212.811 141.301 224.209 141.641 225.851 141.97 227.494 142.324 229.1 134.832 222.41 128.469 217.269 119.233 212.707 115.351 210.79 108.812 208.214 104.521 207.368L100.678 206.509C98.1018 206.173 95.7456 208.002 95.4023 210.579 93.5797 224.251 97.3725 238.934 102.49 251.728 99.3961 250.514 99.1531 250.3 95.604 249.338 94.1628 248.927 92.6955 248.629 91.299 248.143 88.3724 247.117 82.8752 246.788 79.5927 246.612 73.1371 246.267 71.7206 246.661 66.0117 247.098 62.9889 247.28 60.8825 247.777 58.0394 248.33 55.9677 248.732 56.1006 248.583 54.0255 249.151 52.1635 249.661 50.6034 249.978 48.712 250.645 47.073 251.168 45.4301 251.727 43.7978 252.325L36.7813 255.499C30.3818 258.736 27.9728 260.395 22.4128 264.348 18.5285 267.11 20.2429 273.516 25.5979 273.385 29.5556 273.288 31.2253 273.023 35.8215 273.945 41.0836 275 49.6336 279.434 54.1297 282.645L58.1329 285.185C59.526 286.156 60.8771 287.201 62.3524 288.06L64.8135 289.777C72.2261 294.925 79.2133 298.977 87.6284 302.025 91.6262 303.455 98.0377 305.602 101.937 306.357 103.274 306.618 104.566 307.104 105.929 307.216 106.291 307.231 107.183 307.614 108.464 307.776L113.3 308.597 122.474 309.717C131.136 310.418 176.762 312.368 178.836 310.576L181.707 308.56 181.02 306.805C181.016 306.805 181.008 306.805 181.005 306.805 181.345 306.73 181.696 306.692 182.014 306.73 182.077 306.991 182.159 307.29 182.331 307.514L182.514 306.805C183.282 306.805 186.21 305.429 186.965 305.049 188.756 304.15 190.557 303.164 192.197 302.025 193.305 301.278 194.384 300.457 195.557 299.821 198.333 298.329 205.381 291.335 207.768 288.544L214 280.852 215.893 278.238C216.281 277.715 216.737 277.23 217.106 276.67 222.312 268.822 224.743 264.992 228.723 255.946L234.186 255.871C236.52 255.922 240.426 255.528 242.293 255.796L252.509 255.871C254.018 255.917 264.169 256.444 265.653 256.693 267.663 257.189 269.618 257.319 271.183 257.664L281.066 260.278C282.519 260.838 283.96 261.36 285.424 261.846 288.191 262.966 290.973 264.049 293.635 265.43 289.592 266.393 281.277 270.828 278.143 273.011L274.162 275.661C273.146 276.445 272.127 277.23 271.111 278.014 265.726 282.121 260.864 285.679 254.782 289.178 252.894 290.265 246.124 293.664 243.565 294.63L241.537 295.452C237.534 297.111 234.301 298.066 230.249 299.26L226.014 300.418C224.416 300.601 224.395 300.767 222.908 301.127L212.553 303.031C208.766 303.5 204.496 304.406 200.671 305.085 195.544 305.994 191.009 306.757 185.81 307.4 185.467 307.442 181.516 307.769 181.811 308.146 182.094 308.333 182.561 308.221 182.778 308.482 182.211 309.191 182.036 308.757 182.673 309.154 182.128 309.208 180.286 310.453 179.858 310.689 182.42 312.242 186.803 310.462 189.578 310.723 190.717 310.83 190.292 311.19 191.3 311.096L196.49 310.798C198.356 310.957 203.511 310.894 205.448 310.76 206.038 310.723 206.628 310.574 207.211 310.611 208.267 310.645 210.141 310.338 210.632 310.462 211.865 310.773 212.675 310.443 214.112 310.275 220.816 309.491 228.492 308.036 235.052 306.28 238.363 305.32 243.365 303.91 246.287 302.621 248.686 301.563 250.713 300.918 253.307 299.671L258.274 297.319C265.099 293.704 272.839 288.424 279.053 284.026 281.3 282.436 285.959 279.434 288.62 277.977 289.831 277.359 293.97 275.366 295.237 275.064 296.252 274.841 297.249 274.504 298.287 274.243 300.718 273.669 305.838 273.222 308.377 273.496 310.068 273.571 311.759 272.75 312.775 271.256 314.323 268.941 313.707 265.842 311.396 264.274ZM162.542 42.5463C162.621 41.9859 162.654 41.3889 162.666 40.7911 162.674 39.7913 163.074 37.4591 163.102 35.9745L163.375 34.8545C163.346 34.4123 163.194 33.8767 163.461 33.4727 163.472 33.4727 163.472 33.4353 163.468 33.3979 163.35 32.8235 163.788 32.6812 163.64 32.1283 163.512 31.6494 164.626 29.9003 164.936 28.805 165.259 27.6602 166.229 27.1767 166.175 26.6391 166.156 26.4521 166.175 26.2657 166.205 26.1161 166.694 26.4434 166.354 26.1302 166.888 26.9376 167.099 27.2549 166.681 27.3383 166.971 27.6095 167.33 27.9468 168.013 28.477 168.139 28.9539 168.276 29.4708 169.875 33.1481 169.667 33.5094 169.38 34.005 169.725 34.2167 169.854 34.7042 170.844 38.4656 171.08 42.2711 170.485 46.1307 170.233 47.7643 169.168 50.8732 168.356 52.3665L166.374 55.3913 164.006 50.948C163.222 48.9564 162.658 45.5677 162.605 43.4799 162.601 43.1814 162.505 42.8822 162.542 42.5463ZM152.658 46.7658C153.171 51.3347 154.994 56.6315 157.799 60.3575L161.399 64.6145 163.699 66.5186C165.283 67.863 167.642 67.863 169.259 66.4812 172.661 63.4244 173.514 62.0566 175.697 57.8931 178.376 52.7318 179.253 47.592 178.897 41.8744 178.855 41.1905 178.7 39.0066 178.457 38.4763 178.324 38.1884 178.641 38.1637 178.304 37.3189L177.803 35.2278C176.623 30.8199 175.122 28.2633 171.389 25.4823 171.122 25.2833 166.808 22.3855 166.74 23.2417 166.713 23.5783 167.025 23.4293 166.635 23.9509L166.501 24.2495C166.494 24.2495 166.49 24.2869 166.475 24.3243 166.471 24.3243 166.471 24.3243 166.464 24.3243 166.46 24.2869 166.46 24.2869 166.452 24.2869 166.352 23.9135 166.389 23.7265 166.449 23.428L165.982 22.9799C165.075 22.7715 165.464 22.3741 163.828 22.7555 162.839 22.9859 160.627 24.1894 159.817 24.9587L157.719 26.7139C155.597 28.992 153.832 33.2736 153.372 36.3852 153.361 36.46 153.354 36.5348 153.32 36.6089 152.587 38.2693 152.318 44.5325 152.658 46.7658Z" fill="#86C281" fill-rule="evenodd" fill-opacity="1" transform="matrix(1 0 0 1.00005 821.602 1414.63)"/></g></g></g></g></g></svg>