<svg width="64" height="64" xmlns="http://www.w3.org/2000/svg" xmlns:xlink="http://www.w3.org/1999/xlink" xml:space="preserve" overflow="hidden"><g transform="translate(-728 -1622)"><g><g><g><g><path d="M760 1625C744.003 1625 731 1638 731 1654 731 1670 744.003 1683 760 1683 775.997 1683 789 1670 789 1654 789 1638 775.997 1625 760 1625ZM776.296 1656.81 762.806 1656.81 762.806 1670.3C762.806 1671.83 761.553 1673.1 760 1673.1 758.447 1673.1 757.194 1671.83 757.194 1670.3L757.194 1656.81 743.704 1656.81C742.17 1656.81 740.898 1655.55 740.898 1654 740.898 1652.45 742.17 1651.19 743.704 1651.19L757.194 1651.19 757.194 1637.7C757.194 1636.17 758.447 1634.9 760 1634.9 761.553 1634.9 762.806 1636.17 762.806 1637.7L762.806 1651.19 776.296 1651.19C777.83 1651.19 779.103 1652.45 779.103 1654 779.103 1655.55 777.83 1656.81 776.296 1656.81Z" fill="#FDF3DD" fill-rule="nonzero" fill-opacity="1"/></g></g></g></g></g></svg>