<svg width="128" height="101" xmlns="http://www.w3.org/2000/svg" xmlns:xlink="http://www.w3.org/1999/xlink" xml:space="preserve" overflow="hidden"><g transform="translate(-417 -490)"><g><path d="M541 588C532.542 588 525.662 578.815 525.662 567.525L525.66 511.475C525.66 507.798 523.419 504.806 520.665 504.806 517.91 504.806 515.67 507.798 515.669 511.475L515.673 511.475 515.673 567.525C515.673 578.815 508.792 588 500.334 588 491.877 588 484.996 578.815 484.996 567.525L484.995 511.475C484.995 507.798 482.754 504.806 479.999 504.806 477.245 504.806 475.004 507.798 475.004 511.475L475.004 567.525C475.004 578.815 468.123 588 459.666 588 451.208 588 444.327 578.815 444.327 567.525L444.326 511.475C444.326 507.798 442.085 504.807 439.33 504.807 436.576 504.807 434.335 507.798 434.335 511.475L434.339 511.475 434.339 567.525C434.339 578.815 427.458 588 419 588L419 574.194C421.754 574.194 423.995 571.202 423.996 567.525L423.992 567.525 423.992 511.475C423.992 500.185 430.873 491 439.33 491 447.788 491 454.669 500.185 454.669 511.475L454.67 567.525C454.67 571.202 456.911 574.193 459.666 574.193 462.42 574.193 464.661 571.202 464.661 567.525L464.661 511.475C464.661 500.185 471.542 491 479.999 491 488.457 491 495.338 500.185 495.338 511.475L495.339 567.525C495.339 571.202 497.58 574.193 500.334 574.193 503.089 574.193 505.33 571.202 505.33 567.525L505.326 567.525 505.326 511.475C505.326 500.185 512.207 491 520.665 491 529.122 491 536.003 500.185 536.003 511.475L536.005 567.525C536.005 571.202 538.246 574.193 541 574.193L541 588Z" fill="#FF78E5" fill-rule="evenodd" fill-opacity="1"/></g></g></svg>