<svg width="105" height="110" xmlns="http://www.w3.org/2000/svg" xmlns:xlink="http://www.w3.org/1999/xlink" xml:space="preserve" overflow="hidden"><g transform="translate(-142 -1090)"><g><g><g><g><path d="M101.053 59.1743C100.731 55.1072 98.3555 51.5234 94.7917 49.5905 92.1743 48.1609 89.1944 47.8388 86.2749 48.1005 83.3756 48.3623 80.6172 49.4898 77.6777 49.2885 74.8186 49.1073 72.02 48.2818 69.5837 46.7717 67.7112 45.624 66.1408 44.114 64.832 42.4026 64.6911 42.2214 64.5502 42.02 64.4092 41.8388 64.0065 41.2952 63.624 40.7113 63.2817 40.1274 73.8924 42.8053 86.2548 43.4294 91.389 34.1274 95.2347 28.4093 93.7246 20.6375 88.0065 16.7919 84.6239 14.5167 80.3555 14.1342 76.6105 15.7047 73.8723 16.8523 71.7582 18.9865 70.1475 21.4429 68.5569 23.8791 67.7112 26.7382 65.7179 28.8925 63.7851 31.0066 61.4092 32.6979 58.7113 33.6643 55.7717 34.7113 52.6509 34.8724 49.5905 34.4496 58.3086 27.8254 66.5032 18.5436 62.4159 8.73823 60.3421 2.15436 53.3354-1.48993 46.7516 0.583891 42.8657 1.81208 39.9059 4.91274 38.7986 8.81877 37.9932 11.6778 38.3355 14.6577 39.2415 17.4563 40.1475 20.2147 41.859 22.6711 42.322 25.5704 42.765 28.3892 42.6039 31.3086 41.6777 34.0268 40.671 36.9865 38.8388 39.5234 36.6039 41.6375 36.8657 30.7046 34.7113 18.5033 24.5033 15.5839 18.0604 13.1073 10.8322 16.3087 8.35568 22.7516 6.88589 26.557 7.46978 30.8053 9.82548 34.1073 11.557 36.5234 14.0939 38.114 16.8523 39.1408 19.5704 40.1677 22.5503 40.3489 25.1073 41.7985 27.604 43.2079 29.7784 45.161 31.3288 47.5771 32.0536 48.7046 32.6174 49.8925 33.0402 51.1408 32.9999 51.6643 32.9596 52.1677 32.9596 52.6911 32.9596 53.6576 33.0402 54.6039 33.2013 55.5301 24.9462 48.8455 14.5369 43.5704 6.20133 49.5099 0.221476 52.973-1.77181 60.6039 1.71141 66.5636 3.76509 70.0871 7.44965 72.2817 11.5167 72.483 14.4765 72.6441 17.3154 71.6374 19.8322 70.1273 22.3288 68.6374 24.3221 66.4226 27.0603 65.3354 29.718 64.2683 32.5972 63.7851 35.4563 64.0871 36.1408 64.1676 36.8254 64.2683 37.4898 64.4294 38.6979 65.7784 40.1073 66.926 41.6777 67.8522 31.6912 70.2481 21.8254 75.1005 21.2818 84.9461 20.2952 91.7716 25.0268 98.0937 31.8523 99.0803 35.8791 99.6642 39.9059 98.1541 42.6039 95.1138 44.5771 92.879 45.5636 90.0602 45.9462 87.1407 46.3287 84.2615 45.8657 81.3219 46.6912 78.5032 47.5167 75.7649 48.926 73.2079 50.9395 71.1542 51.2817 70.8119 51.624 70.4898 51.9864 70.1877 54.02 70.0267 55.9529 69.5233 57.7247 68.7179 53.3958 77.9998 51.0804 88.691 58.4092 95.2347 63.1408 100.268 71.0334 100.51 76.0669 95.7783 79.0266 92.9796 80.3555 88.9125 79.6709 84.9058 79.1676 81.9864 77.5568 79.4495 75.5233 77.3152 73.5099 75.2213 70.9126 73.7515 69.2414 71.3354 67.6106 68.9797 66.5032 66.2817 66.1408 63.4428 66.0401 62.6374 65.9998 61.8119 66.0401 61.0066 66.9663 59.3153 67.6106 57.4428 67.9327 55.4697 72.4629 65.0535 79.5501 74.3152 89.6374 72.6038 96.483 72.0602 101.617 66.0401 101.053 59.1743ZM50.5569 66.2012C42.9865 66.2012 36.8455 60.0602 36.8455 52.4898 36.8455 44.9193 42.9865 38.7784 50.5569 38.7784 58.1274 38.7784 64.2683 44.9193 64.2683 52.4898 64.2683 60.0602 58.1274 66.2012 50.5569 66.2012Z" fill="#FF914D" fill-rule="nonzero" fill-opacity="1" transform="matrix(1.00573 0 0 1 144.792 1096.49)"/></g></g></g></g></g></svg>