<svg width="87" height="87" xmlns="http://www.w3.org/2000/svg" xmlns:xlink="http://www.w3.org/1999/xlink" xml:space="preserve" overflow="hidden"><g transform="translate(-1132 -673)"><g><path d="M1166.92 695.029C1166.92 683.423 1170.76 674 1175.5 674 1180.24 674 1184.08 683.423 1184.08 695.029 1192.19 686.822 1201.5 682.912 1204.84 686.302 1208.19 689.692 1204.33 699.107 1196.22 707.314 1207.69 707.314 1217 711.206 1217 716 1217 720.794 1207.69 724.686 1196.22 724.686 1204.33 732.893 1208.19 742.308 1204.84 745.698 1201.5 749.088 1192.19 745.178 1184.08 736.971 1184.08 748.577 1180.24 758 1175.5 758 1170.76 758 1166.92 748.577 1166.92 736.971 1158.81 745.178 1149.5 749.088 1146.16 745.698 1142.81 742.308 1146.67 732.893 1154.78 724.686 1143.31 724.686 1134 720.794 1134 716 1134 711.206 1143.31 707.314 1154.78 707.314 1146.67 699.107 1142.81 689.692 1146.16 686.302 1149.5 682.911 1158.81 686.822 1166.92 695.029Z" fill="#FF2D01" fill-rule="evenodd" fill-opacity="1"/><path d="M1175.5 701C1167.49 701 1161 707.716 1161 716 1161 724.284 1167.49 731 1175.5 731 1183.51 731 1190 724.284 1190 716 1190 707.716 1183.51 701 1175.5 701Z" fill="#FF78E5" fill-rule="evenodd" fill-opacity="1"/></g></g></svg>