<svg width="220" height="288" xmlns="http://www.w3.org/2000/svg" xmlns:xlink="http://www.w3.org/1999/xlink" xml:space="preserve" overflow="hidden"><defs><clipPath id="clip0"><path d="M1693.76 1495.09 1872.08 1519.17 1836.77 1780.7 1658.45 1756.63 1693.76 1495.09Z" fill-rule="evenodd" clip-rule="evenodd"/></clipPath><clipPath id="clip1"><path d="M1693.76 1495.09 1872.08 1519.17 1836.77 1780.7 1658.45 1756.63Z" fill-rule="evenodd" clip-rule="evenodd"/></clipPath><clipPath id="clip2"><path d="M1693.76 1495.09 1872.08 1519.17 1836.77 1780.7 1658.45 1756.63Z" fill-rule="evenodd" clip-rule="evenodd"/></clipPath></defs><g transform="translate(-1654 -1494)"><g><g clip-path="url(#clip0)"><g clip-path="url(#clip1)"><g clip-path="url(#clip2)"><path d="M165.699 125.643 98.2092 116.767 103.684 100.687C103.684 100.687 133.309 98.7855 149.619 91.0625 165.93 83.3395 174.46 72.6195 171.405 66.6255 168.35 60.6315 120.687 92.2728 115.903 92.2728 111.119 92.2728 106.451 92.6186 106.451 92.6186L108.468 86.7399C108.699 86.1636 108.353 85.5296 107.776 85.3567 107.258 85.1838 106.739 85.3567 106.451 85.8178 106.451 85.8178 94.7511 1.21032 84.6074 0 74.4638-1.21032 78.6711 17.2903 84.6074 51.41 90.5438 85.5296 100.803 95.0393 100.803 95.0393 100.457 96.0767 97.6905 104.146 93.2526 115.961 93.2526 115.961 73.0229 83.2818 63.7437 73.7721 54.4646 64.2625 41.3816 50.6031 37.8082 52.3898 34.2349 54.1764 33.0246 50.6031 40.1712 65.9339 46.6263 79.7661 83.7429 114.693 91.1201 121.494 88.3537 128.698 85.1261 136.94 81.5528 145.527 81.5528 145.527 67.6053 134 61.0349 122.646 54.4646 111.292 34.8689 70.8328 21.0942 69.6225 7.31958 68.4121 48.9317 130.369 58.5566 140.513 64.0319 146.334 70.6022 151.002 77.8642 154.23 74.5214 162.011 70.9481 169.964 67.2594 177.687 64.9541 175.324 48.0095 157.457 38.5575 141.723 28.4138 124.836 17.8091 98.1515 8.12646 104.434-1.55613 110.716 40.8052 161.492 47.7214 168.005 53.5424 173.48 60.8044 183.278 62.9945 186.275 62.8216 186.563 62.7063 186.851 62.5334 187.197 59.9975 192.096 57.4616 196.879 54.9257 201.433L32.9093 179.877C26.9153 172.731 7.95356 129.793 1.38323 137.574-5.1871 145.354 12.1032 160.8 18.3278 173.537 24.2065 185.698 49.3928 205.236 51.7558 207.081 34.7536 236.705 19.3076 257.107 22.9385 259.643 27.3188 262.698 32.6788 255.206 33.1975 254.168L33.1975 254.11 47.3179 229.097 60.6891 205.87C73.3687 211.115 137.804 237.281 142.588 228.175 147.948 218.031 121.724 215.034 103.569 213.248 85.4143 211.461 62.8216 202.067 62.8216 202.067L74.6367 181.491 94.924 192.73C94.924 192.73 151.291 202.758 154.979 190.021 158.668 177.284 125.874 182.356 112.675 183.739 102.474 184.776 85.472 178.148 78.2676 175.094L84.4345 156.939C93.656 160.109 103.108 162.414 112.733 163.855 135.383 167.428 160.397 168.005 161.607 159.071 162.817 150.138 126.45 154.922 114.52 154.518 102.589 154.115 86.3365 151.233 86.3365 151.233L95.558 124.087C105.817 128.294 137.401 140.455 150.253 136.997 165.93 132.79 169.618 129.217 165.699 125.643Z" fill="#D6E8F7" fill-rule="nonzero" fill-opacity="1" transform="matrix(0.991873 0.13392 -0.133803 0.991008 1698.81 1497)"/></g></g></g></g></g></svg>