<svg width="60" height="64" xmlns="http://www.w3.org/2000/svg" xmlns:xlink="http://www.w3.org/1999/xlink" xml:space="preserve" overflow="hidden"><g transform="translate(-444 -802)"><g><path d="M493.998 851.466C494.022 851.776 494.031 852.086 494.031 852.387 494.031 857.876 490.386 862.004 485.848 863.441 484.701 863.807 483.499 864 482.287 864 479.571 864 476.795 863.037 474.455 860.872 472.111 863.037 469.335 864 466.619 864 460.329 864 454.372 858.834 454.913 851.466 454.184 851.354 453.494 851.185 452.841 850.964 447.838 849.283 445 844.601 445 839.863 445 836.303 446.602 832.711 450.083 830.325 448.984 828.414 448.491 826.432 448.491 824.512 448.491 820.966 450.177 817.651 452.831 815.467 455.631 813.166 459.502 812.114 463.608 813.373 465.548 808.456 470.002 806 474.455 806 478.909 806 483.358 808.456 485.298 813.373 485.481 813.316 485.664 813.265 485.848 813.218 495.727 810.673 504 821.328 498.823 830.325 502.304 832.711 503.906 836.303 503.906 839.863 503.906 845.225 500.279 850.508 493.998 851.466Z" fill="#FFA981" fill-rule="evenodd" fill-opacity="1"/><path d="M474.5 824C468.149 824 463 828.925 463 835 463 841.075 468.149 846 474.5 846 480.851 846 486 841.075 486 835 486 828.925 480.851 824 474.5 824Z" fill="#CEEF32" fill-rule="evenodd" fill-opacity="1"/></g></g></svg>