<svg width="59" height="64" xmlns="http://www.w3.org/2000/svg" xmlns:xlink="http://www.w3.org/1999/xlink" xml:space="preserve" overflow="hidden"><g transform="translate(-935 -1026)"><g><path d="M983.999 1074.25C984.022 1074.57 984.031 1074.88 984.031 1075.19 984.031 1080.77 980.386 1084.97 975.848 1086.43 974.701 1086.8 973.499 1087 972.287 1087 969.571 1087 966.795 1086.02 964.456 1083.82 962.111 1086.02 959.335 1087 956.619 1087 950.329 1087 944.372 1081.75 944.912 1074.25 944.184 1074.14 943.494 1073.96 942.841 1073.74 937.838 1072.03 935 1067.27 935 1062.45 935 1058.83 936.602 1055.17 940.083 1052.74 938.984 1050.8 938.49 1048.78 938.49 1046.83 938.49 1043.22 940.177 1039.85 942.831 1037.63 945.631 1035.29 949.502 1034.22 953.608 1035.5 955.548 1030.5 960.002 1028 964.455 1028 968.909 1028 973.358 1030.5 975.298 1035.5 975.481 1035.44 975.665 1035.39 975.848 1035.34 985.727 1032.75 994 1043.59 988.823 1052.74 992.304 1055.17 993.906 1058.83 993.906 1062.45 993.906 1067.9 990.279 1073.28 983.998 1074.25Z" fill="#CEEF32" fill-rule="evenodd" fill-opacity="1"/><path d="M964.5 1046C958.149 1046 953 1051.15 953 1057.5 953 1063.85 958.149 1069 964.5 1069 970.851 1069 976 1063.85 976 1057.5 976 1051.15 970.851 1046 964.5 1046Z" fill="#FFA981" fill-rule="evenodd" fill-opacity="1"/></g></g></svg>