<svg width="96" height="97" xmlns="http://www.w3.org/2000/svg" xmlns:xlink="http://www.w3.org/1999/xlink" xml:space="preserve" overflow="hidden"><defs><clipPath id="clip0"><rect x="146" y="925" width="96" height="97"/></clipPath><clipPath id="clip1"><rect x="146" y="925" width="96" height="97"/></clipPath></defs><g clip-path="url(#clip0)" transform="translate(-146 -925)"><g clip-path="url(#clip1)"><g><g><g><path d="M78.4686 92.9998 58.1249 92.9998C56.5206 92.9998 55.2186 91.7007 55.2186 90.0936 55.2186 85.2866 51.3068 81.3748 46.4999 81.3748 41.693 81.3748 37.7812 85.2866 37.7812 90.0936 37.7812 91.7007 36.4792 92.9998 34.8749 92.9998L2.90624 92.9998C1.302 92.9998 0 91.7007 0 90.0936L0 58.1249C0 56.5177 1.302 55.2186 2.90624 55.2186 7.71317 55.2186 11.625 51.3068 11.625 46.4999 11.625 41.693 7.71317 37.7812 2.90624 37.7812 1.302 37.7812 0 36.4821 0 34.8749L0 14.5312C0 12.9241 1.302 11.625 2.90624 11.625L32.2622 11.625C33.6107 5.00165 39.4813 0 46.4999 0 53.5185 0 59.3891 5.00165 60.7376 11.625L78.4686 11.625C80.0728 11.625 81.3748 12.9241 81.3748 14.5312L81.3748 32.2622C87.9982 33.6136 92.9998 39.4813 92.9998 46.4999 92.9998 53.5185 87.9982 59.3891 81.3748 60.7376L81.3748 90.0936C81.3748 91.7007 80.0728 92.9998 78.4686 92.9998ZM60.7376 87.1873 75.5623 87.1873 75.5623 58.1249C75.5623 56.5177 76.8643 55.2186 78.4686 55.2186 83.2755 55.2186 87.1873 51.3068 87.1873 46.4999 87.1873 41.693 83.2755 37.7812 78.4686 37.7812 76.8643 37.7812 75.5623 36.4821 75.5623 34.8749L75.5623 17.4375 58.1249 17.4375C56.5206 17.4375 55.2186 16.1384 55.2186 14.5312 55.2186 9.72429 51.3068 5.81249 46.4999 5.81249 41.693 5.81249 37.7812 9.72429 37.7812 14.5312 37.7812 16.1384 36.4792 17.4375 34.8749 17.4375L5.81249 17.4375 5.81249 32.2622C12.4358 33.6107 17.4375 39.4813 17.4375 46.4999 17.4375 53.5185 12.4358 59.3891 5.81249 60.7376L5.81249 87.1873 32.2622 87.1873C33.6107 80.564 39.4842 75.5623 46.4999 75.5623 53.5156 75.5623 59.3891 80.564 60.7376 87.1873Z" fill="#F51F8C" fill-rule="nonzero" fill-opacity="1" transform="matrix(1 0 0 1 148 929)"/></g></g></g></g></g></svg>