<svg width="270" height="271" xmlns="http://www.w3.org/2000/svg" xmlns:xlink="http://www.w3.org/1999/xlink" xml:space="preserve" overflow="hidden"><g transform="translate(-417 -1489)"><g><g><g><g><path d="M147.619 239.701 147.619 239.701ZM262.878 42.6051 262.815 42.7301C262.628 43.1674 262.44 43.4797 262.378 43.6047 261.94 44.4793 261.441 45.3539 261.066 46.041 260.629 46.8532 260.191 47.6653 259.754 48.4774 259.317 49.2895 258.879 50.1017 258.442 50.9138 258.38 51.1012 257.255 53.2877 257.193 53.3501 257.193 53.2877 258.442 51.0387 258.505 50.9138 258.442 51.0387 257.505 52.9128 257.255 53.3501 256.943 53.9749 256.381 55.0369 256.006 55.7865 255.693 56.3487 255.131 57.4732 254.756 58.2229 254.506 58.7226 253.757 60.097 253.444 60.6592 253.07 61.3464 252.507 62.4084 252.195 63.0956 251.695 64.0327 251.383 64.5949 250.883 65.532L249.634 67.9683C249.446 68.2807 248.572 69.9674 248.384 70.4047 248.322 70.5921 247.072 72.8411 247.072 72.8411 247.072 72.7786 248.134 70.7795 248.322 70.4047 248.697 69.655 249.196 68.718 249.571 67.9683 249.946 67.2187 250.383 66.3441 250.821 65.532L252.07 63.0956 249.446 67.9683C249.009 68.7805 248.634 69.5926 248.197 70.4047 247.947 70.9045 247.135 72.4038 246.885 72.8411 246.823 72.966 246.76 73.091 246.698 73.2159 246.198 73.8406 245.636 74.5902 245.261 75.0275L243.574 77.1516 241.887 79.2756C241.512 79.7129 240.638 80.8373 240.201 81.3996 239.763 81.8993 238.889 83.0238 238.451 83.5236 237.952 84.1483 237.202 85.0854 236.765 85.6476 236.078 86.4597 235.703 86.9595 235.016 87.7716 234.578 88.3338 233.766 89.3334 233.329 89.8956 233.016 90.2704 231.829 91.7073 231.58 92.0196 231.33 92.2695 230.08 93.8313 229.83 94.1436 229.456 94.6434 228.456 95.9553 228.144 96.2677 227.956 96.5175 226.707 98.0793 226.457 98.3917 226.207 98.704 224.895 100.266 224.708 100.516 224.146 101.265 223.521 102.015 223.021 102.64L221.147 104.951C220.897 105.201 219.71 106.763 219.46 107.075 219.148 107.45 217.961 108.887 217.711 109.199 217.211 109.824 216.587 110.573 215.962 111.323 215.587 111.823 214.65 112.947 214.213 113.447 213.9 113.884 212.776 115.259 212.526 115.571 212.401 115.759 210.964 117.57 210.839 117.695 210.277 118.382 209.527 119.257 209.09 119.819 208.903 120.069 207.341 121.943 207.341 121.943 207.341 121.943 208.965 119.944 209.028 119.819 208.403 120.569 207.841 121.256 207.278 121.943 206.966 122.38 205.842 123.755 205.592 124.067 205.279 124.504 204.342 125.691 203.905 126.191 203.405 126.816 202.656 127.691 202.156 128.315 201.656 128.94 200.906 129.877 200.469 130.439 200.219 130.752 198.907 132.313 198.72 132.563 198.533 132.813 197.033 134.687 197.033 134.687 197.033 134.687 198.657 132.688 198.782 132.563 198.283 133.188 197.595 134.063 197.096 134.687 196.783 135.062 195.596 136.499 195.346 136.811 194.972 137.311 194.097 138.311 193.597 138.935 193.035 139.622 192.41 140.372 191.848 141.059 191.536 141.497 190.411 142.871 190.161 143.183 189.787 143.683 188.974 144.683 188.475 145.307 188.1 145.807 187.163 146.932 186.725 147.431 186.413 147.806 185.289 149.305 185.039 149.555 184.414 150.305 183.789 151.117 183.29 151.679 182.727 152.367 182.165 153.054 181.54 153.741L185.913 151.117 188.225 149.68C189.787 148.743 191.348 147.806 192.91 146.869 193.41 146.557 194.534 145.87 195.222 145.432 195.409 145.307 197.408 144.183 197.595 144.058 198.345 143.621 199.157 143.183 199.969 142.684 200.594 142.309 201.594 141.746 202.343 141.309 202.968 140.934 204.03 140.31 204.655 139.872 205.404 139.435 206.279 138.935 207.029 138.498 207.528 138.186 209.028 137.311 209.34 137.061 210.09 136.561 210.902 136.124 211.651 135.624 212.339 135.249 213.151 134.687 213.963 134.187 214.275 134 215.962 133.001 216.337 132.813 216.774 132.563 218.336 131.626 218.648 131.376 219.46 130.877 220.147 130.439 220.96 129.939 221.772 129.502 222.584 129.002 223.333 128.565 223.896 128.253 225.395 127.378 225.707 127.191 225.52 127.316 223.396 128.565 223.396 128.628 223.458 128.565 225.582 127.378 225.77 127.253 225.582 127.378 223.458 128.628 223.458 128.69 223.521 128.69 225.52 127.503 225.832 127.316 226.582 126.878 227.457 126.379 228.206 125.941L229.955 124.879 230.205 124.754 230.33 125.004 231.892 128.003C231.517 127.191 231.08 126.316 230.705 125.504 230.643 125.442 230.58 125.192 230.393 124.942L230.205 124.629 229.893 124.817C229.143 125.254 228.081 125.879 228.019 125.879 228.081 125.816 229.206 125.192 229.83 124.754L230.205 124.567 230.393 124.942C230.518 125.192 230.643 125.379 230.643 125.442 231.017 126.129 231.58 127.191 231.892 127.878 232.142 128.44 232.891 129.939 233.079 130.377 233.204 130.689 234.266 132.813 234.266 132.876 234.266 132.876 233.079 130.564 233.016 130.439 233.391 131.189 233.829 132.126 234.266 132.938 234.578 133.563 235.265 134.812 235.515 135.374 235.953 136.249 236.39 137.061 236.765 137.811 236.952 138.186 237.764 139.685 238.014 140.247 238.077 140.372 239.201 142.746 239.201 142.746 239.201 142.746 238.014 140.497 237.952 140.31 238.077 140.56 239.014 142.434 239.139 142.808 239.388 143.246 240.201 144.87 240.388 145.245 240.513 145.432 241.575 147.556 241.637 147.681 241.7 147.806 241.762 147.869 241.762 147.994L241.887 148.306 241.637 148.493C240.95 148.993 240.201 149.493 239.638 149.868 239.388 150.055 237.389 151.429 237.389 151.429 237.389 151.429 239.451 149.93 239.576 149.805 238.826 150.305 238.077 150.867 237.327 151.367 236.89 151.679 235.453 152.741 235.14 152.991 234.516 153.429 233.704 154.053 232.954 154.615 232.579 154.865 231.08 155.865 230.705 156.177 230.58 156.302 228.519 157.739 228.519 157.801L230.767 156.24C230.143 156.677 229.206 157.364 228.581 157.864 227.956 158.301 226.894 159.051 226.27 159.426 225.52 159.925 224.833 160.488 224.083 161.05 223.333 161.55 222.584 162.112 221.834 162.612 221.209 163.049 220.21 163.799 219.648 164.236 219.085 164.611 217.898 165.423 217.336 165.798 216.774 166.235 215.525 167.11 215.15 167.422L212.963 169.046C212.464 169.421 211.402 170.171 210.777 170.67 210.34 170.983 209.028 171.92 208.465 172.232 207.841 172.67 206.841 173.419 206.279 173.856 205.404 174.481 204.842 174.856 204.03 175.418 203.967 175.418 201.968 176.918 201.843 177.043 201.594 177.23 199.595 178.604 199.595 178.604 199.657 178.542 201.656 177.105 201.781 176.98 201.906 176.855 203.905 175.418 203.967 175.356 203.905 175.418 201.968 176.73 201.656 176.918 201.219 177.23 199.844 178.167 199.407 178.479 198.657 179.042 197.908 179.541 197.221 180.104 196.721 180.416 195.346 181.415 194.909 181.665 194.222 182.165 193.222 182.852 192.723 183.29 192.16 183.727 191.223 184.352 190.536 184.914 189.974 185.351 188.912 186.038 188.35 186.538 187.975 186.788 186.975 187.475 186.413 187.85 187.163 187.538 188.537 187.038 188.537 187.038 188.537 187.038 186.788 187.788 186.163 187.975 186.163 187.975 186.163 187.975 186.163 187.975 186.725 187.788 188.225 187.225 188.6 187.038 189.287 186.788 190.411 186.288 191.098 185.976 191.661 185.788 193.222 185.164 193.66 184.976 194.472 184.664 195.596 184.164 196.159 183.977L198.657 182.977C198.845 182.915 201.031 181.978 201.219 181.915 201.594 181.728 203.28 181.103 203.718 180.916 203.905 180.853 206.279 179.916 206.279 179.916 206.154 179.979 203.905 180.916 203.78 180.916 203.718 180.916 201.656 181.79 201.281 181.915 200.969 182.04 198.782 182.915 198.782 182.977 198.907 182.915 200.969 182.165 201.344 181.978 201.906 181.79 203.155 181.291 203.905 180.978 204.78 180.666 205.654 180.291 206.466 179.979 207.278 179.666 208.153 179.291 208.965 178.917 209.59 178.667 211.152 178.042 211.464 177.855 211.277 177.917 208.903 178.854 208.903 178.854 208.965 178.854 211.214 177.917 211.402 177.855 211.214 177.917 208.84 178.854 208.84 178.854 208.903 178.854 211.027 177.98 211.339 177.855 212.151 177.542 213.026 177.167 213.838 176.855L219.023 174.856C218.898 174.919 216.524 175.856 216.524 175.856 216.836 175.731 218.711 175.043 219.085 174.856 219.46 174.731 221.334 173.919 221.584 173.856 221.897 173.732 224.146 172.857 224.146 172.857L221.647 173.856C222.209 173.669 223.583 173.107 224.208 172.857 224.958 172.545 225.957 172.17 226.707 171.857 227.019 171.732 227.956 171.358 228.581 171.108L228.643 171.108 228.706 171.108C229.081 171.108 229.331 171.108 229.456 171.108 230.393 171.108 231.267 171.108 232.204 171.108 232.704 171.108 234.578 171.108 234.953 171.108 235.265 171.108 237.639 171.108 237.702 171.108 237.702 171.108 235.078 171.108 234.953 171.108 234.703 171.108 232.267 171.108 232.204 171.108 231.829 171.108 229.456 171.108 229.456 171.108 229.518 171.108 232.017 171.108 232.204 171.108L237.639 171.045C239.513 171.045 241.325 171.108 243.199 171.108 244.011 171.108 245.323 171.108 245.948 171.108 246.073 171.108 246.323 171.108 246.698 171.108L246.947 171.108 247.01 171.358C247.135 172.17 247.26 173.357 247.26 173.357 247.26 173.294 247.072 172.17 246.947 171.358L246.885 171.108 246.635 171.108C246.198 171.108 245.885 171.108 245.948 171.108 246.01 171.108 246.26 171.108 246.635 171.108L246.885 171.108 246.885 171.295C246.947 171.982 247.135 172.982 247.197 173.357 247.197 173.419 247.635 175.918 247.635 176.043 247.635 175.856 247.26 173.357 247.26 173.294 247.26 173.357 247.635 175.606 247.697 175.981 247.822 176.605 248.072 178.354 248.134 178.667 248.134 178.479 247.76 175.981 247.76 175.918 247.76 175.981 248.134 178.229 248.197 178.604 248.322 179.229 248.509 180.478 248.634 181.291 248.634 181.478 249.009 183.789 249.009 184.039 249.071 184.352 249.384 186.725 249.384 186.788L249.259 184.289C249.321 184.789 249.571 186.413 249.634 187.038 249.696 187.538 250.009 189.349 250.071 189.724 250.196 190.474 250.321 191.411 250.508 192.285L250.571 192.535 250.321 192.66 250.196 192.723C249.509 193.035 248.447 193.597 247.76 193.91 247.072 194.222 245.885 194.784 245.261 195.097 244.699 195.346 243.324 196.034 242.824 196.284 242.137 196.596 240.825 197.221 240.326 197.471 239.951 197.658 237.827 198.595 237.827 198.657 237.889 198.657 239.951 197.595 240.263 197.471 240.45 197.346 242.574 196.346 242.699 196.284 242.012 196.596 240.888 197.158 240.201 197.471 239.388 197.845 238.576 198.283 237.764 198.657 236.952 199.032 236.078 199.47 235.265 199.844 234.703 200.157 233.329 200.781 232.829 201.031 231.954 201.469 231.142 201.906 230.393 202.218L227.956 203.405C227.519 203.655 226.145 204.342 225.52 204.592 225.208 204.717 223.271 205.654 223.021 205.779 222.709 205.904 220.835 206.779 220.522 206.966 220.147 207.153 219.023 207.716 218.461 208.028 218.273 208.091 218.148 208.153 218.086 208.153 217.211 208.403 216.149 208.778 215.462 208.965 215.087 209.09 213.276 209.652 212.838 209.777 212.401 209.902 210.589 210.527 210.277 210.652 209.527 210.902 208.59 211.214 207.716 211.526 207.153 211.714 205.779 212.214 205.154 212.401 204.28 212.651 203.405 212.963 202.531 213.213 201.656 213.526 200.781 213.775 199.969 214.088 199.47 214.213 197.72 214.775 197.346 214.9 196.408 215.212 195.534 215.462 194.722 215.712 194.784 215.712 197.096 214.9 197.283 214.837 197.845 214.65 199.47 214.15 199.907 214.025 200.719 213.775 201.843 213.338 202.468 213.151L205.029 212.276C204.217 212.526 203.218 212.838 202.406 213.088 201.594 213.338 200.594 213.65 199.782 213.9 199.157 214.088 197.783 214.588 197.221 214.775 196.284 215.087 195.409 215.4 194.659 215.65 193.847 215.899 193.035 216.212 192.098 216.524 191.161 216.836 190.286 217.149 189.537 217.399 189.224 217.524 187.35 218.148 186.975 218.273 186.038 218.586 185.289 218.836 184.352 219.085 184.164 219.148 181.79 219.96 181.79 219.96 180.853 220.272 180.041 220.522 179.167 220.772 178.417 221.022 177.292 221.397 176.668 221.584 176.668 221.584 176.605 221.647 176.605 221.647 176.293 221.834 174.294 223.084 174.231 223.084 174.231 223.084 176.48 221.647 176.48 221.584 175.793 222.022 174.856 222.584 174.106 223.021 173.544 223.396 172.357 224.208 171.795 224.52 170.983 225.02 170.171 225.582 169.546 226.02 169.109 226.332 167.859 227.144 167.297 227.519 167.235 227.581 164.986 228.956 164.923 229.018 164.923 229.018 167.047 227.581 167.235 227.519 167.047 227.644 165.236 228.768 164.861 228.956 164.298 229.331 163.112 230.143 162.549 230.455 161.737 230.955 160.925 231.517 160.3 231.954 160.05 232.079 158.301 233.266 158.051 233.454 157.489 233.829 156.115 234.641 155.677 234.953 154.928 235.39 154.178 235.89 153.304 236.452 152.804 236.765 151.492 237.577 150.93 237.889 150.43 238.202 149.056 239.139 148.681 239.388 148.493 239.513 148.368 239.576 148.181 239.701 147.806 240.326 147.431 241.013 147.119 241.45L145.682 243.824 148.056 239.576 148.493 239.264 148.056 239.513 145.557 243.761 144.245 246.135C143.933 246.698 143.308 247.76 142.933 248.509 142.684 248.947 141.809 250.383 141.559 250.883 141.122 251.695 140.684 252.507 140.247 253.257 139.872 253.882 139.248 255.006 138.873 255.631 138.436 256.443 137.998 257.193 137.561 258.005 137.124 258.817 136.686 259.567 136.249 260.379 135.812 261.191 135.312 262.003 134.875 262.753L132.063 267.5C132.501 266.751 133.001 265.876 133.375 265.126 133.563 264.814 134.687 262.753 134.687 262.753 134.687 262.753 134.562 263.002 134.375 263.315L132.001 267.438 120.069 267.438 119.694 265.751C119.694 265.751 119.694 265.751 119.694 265.751 119.632 265.439 119.132 263.127 119.07 263.065 119.07 263.127 119.569 265.626 119.632 265.814 119.507 265.251 119.194 263.94 119.007 263.127L118.382 260.441C118.195 259.567 118.008 258.692 117.758 257.755L117.383 255.818 114.822 253.444C115.509 254.069 116.196 254.631 116.883 255.256 116.946 255.319 117.195 255.506 117.445 255.756 117.633 256.568 117.883 257.568 117.883 257.63 117.883 257.568 117.633 256.505 117.508 255.756 117.195 255.506 117.008 255.256 116.883 255.194 116.883 255.194 116.821 255.131 116.821 255.131L112.885 251.57 112.76 251.508C112.51 251.32 110.761 249.696 110.698 249.696 110.761 249.759 112.635 251.445 112.76 251.57 112.448 251.258 111.261 250.258 110.698 249.759 110.136 249.259 109.387 248.572 108.637 247.947 108.512 247.885 106.763 246.198 106.575 246.073 106.076 245.636 105.201 244.761 104.514 244.199 104.139 243.886 102.89 242.762 102.452 242.387 101.952 241.95 100.89 240.888 100.391 240.513 99.8285 240.013 98.7665 239.076 98.3292 238.701 97.642 238.077 96.9548 237.514 96.2677 236.89L92.207 233.266C92.0821 233.141 90.208 231.455 90.1455 231.392 90.208 231.455 92.0821 233.079 92.207 233.204 92.1446 233.141 90.3329 231.455 90.208 231.33 90.4579 231.517 91.7697 232.704 92.2695 233.141 92.9567 233.766 93.5814 234.328 94.3311 234.953 94.456 235.078 96.1427 236.64 96.3926 236.827 96.8924 237.264 97.9544 238.202 98.4541 238.639 99.2038 239.264 99.891 239.888 100.516 240.45 100.578 240.513 100.641 240.575 100.703 240.638L92.2695 233.641C92.1446 233.579 92.0821 233.454 92.0196 233.391 91.27 232.767 90.6453 232.142 89.9581 231.58 89.7082 231.33 88.2089 230.018 87.8965 229.768 87.2094 229.143 86.5222 228.519 85.8975 227.894 85.2103 227.269 84.5231 226.707 83.8359 226.082 83.7735 226.02 83.711 225.957 83.5861 225.832 82.9613 225.582 81.3996 225.083 81.3371 225.083 80.4625 224.833 79.5879 224.52 78.7133 224.271 78.0886 224.083 76.4644 223.521 76.0896 223.458 76.277 223.521 78.6509 224.333 78.7133 224.333 78.6509 224.333 76.3394 223.583 76.0896 223.521 76.277 223.583 78.6509 224.395 78.7133 224.395 78.6509 224.395 76.4644 223.708 76.0896 223.583 75.2774 223.333 74.3404 223.021 73.4658 222.771 71.7166 222.146 69.9674 221.584 68.2182 220.96 68.4056 221.022 70.7795 221.772 70.842 221.772 70.7795 221.772 68.593 221.022 68.2182 220.897 67.9059 220.772 66.0942 220.147 65.5944 220.023 64.8448 219.773 63.7828 219.46 62.9707 219.21 62.4709 219.023 60.7842 218.461 60.3469 218.336 60.1595 218.273 57.848 217.461 57.7231 217.461 57.4108 217.336 55.1618 216.649 55.0993 216.649 55.1618 216.649 57.3483 217.399 57.7231 217.524 58.0355 217.649 59.9721 218.273 60.3469 218.398 59.4723 218.086 58.6602 217.836 57.7231 217.586 57.2233 217.399 55.5366 216.836 55.0993 216.712 54.3497 216.462 53.3501 216.149 52.4756 215.837 51.5385 215.525 50.8513 215.275 49.8518 214.962 49.2895 214.775 48.4774 214.525 47.7902 214.338 47.6028 214.213 47.4779 214.088 47.3529 213.963 46.7282 213.401 45.9161 212.651 45.2914 212.089 44.8541 211.714 43.6047 210.589 43.2299 210.277 42.6051 209.777 41.918 209.09 41.1683 208.465 40.731 208.091 39.6065 207.091 39.1068 206.654 38.7944 206.404 37.2951 204.967 37.0452 204.78 36.2956 204.155 35.6084 203.53 34.9837 202.968L32.9222 201.156 28.8616 197.533C28.7366 197.408 26.8625 195.721 26.8 195.659 26.8625 195.721 28.7366 197.346 28.8616 197.471 28.6741 197.346 26.925 195.659 26.8 195.596 26.8625 195.659 28.7991 197.346 28.8616 197.408 28.7991 197.346 27.1124 195.784 26.8 195.534 26.3627 195.159 25.2382 194.097 24.7385 193.66L22.6769 191.848C22.0522 191.348 21.0527 190.411 20.6154 190.036 20.3655 189.787 18.6163 188.287 18.5539 188.225 18.179 187.85 17.117 186.85 16.4923 186.351 16.1175 185.976 14.993 184.976 14.4308 184.477 13.7436 183.852 13.0564 183.227 12.3692 182.602 11.9944 182.228 10.6201 181.103 10.3077 180.791 9.74546 180.291 9.24569 179.854 8.68345 179.354L8.62098 179.291 8.62098 179.229C8.62098 179.042 8.62098 178.854 8.62098 178.604 8.62098 177.667 8.62098 176.793 8.62098 175.856 8.62098 175.481 8.62098 173.544 8.62098 173.107 8.62098 172.607 8.68345 170.733 8.68345 170.358 8.68345 170.046 8.74592 167.609 8.74592 167.609L8.74592 170.358C8.74592 169.733 8.8084 168.234 8.8084 167.609 8.8084 167.11 8.8084 165.298 8.8084 164.861 8.8084 164.111 8.8084 163.049 8.8084 162.112 8.8084 161.362 8.8084 160.175 8.8084 159.363 8.8084 159.113 8.8084 158.426 8.87087 157.801L8.87087 157.552 9.05828 157.614C9.62052 157.739 10.0578 157.864 10.1828 157.864 11.1198 158.051 12.0569 158.239 12.869 158.426 13.7436 158.614 14.6182 158.801 15.5553 158.988L20.8653 160.113 26.2378 161.362C26.6126 161.425 27.0499 161.55 27.5497 161.675L27.6121 161.675C28.0494 161.987 28.5492 162.299 28.7991 162.487 28.7366 162.424 28.2368 162.112 27.6121 161.737 26.9874 161.612 26.3627 161.487 26.3627 161.487 26.3627 161.487 26.9874 161.612 27.6121 161.8 28.1119 162.112 28.6741 162.487 28.7991 162.612 29.5487 163.112 30.3609 163.674 31.1105 164.111 31.2354 164.236 33.3595 165.548 33.4219 165.548 33.3595 165.548 31.4229 164.236 31.1105 164.049 30.9231 163.924 28.9865 162.674 28.7991 162.549 29.4863 162.987 30.3609 163.549 31.1105 163.986 31.5478 164.298 33.0471 165.298 33.4219 165.485 33.6718 165.673 35.421 166.797 35.7334 166.985 36.2956 167.36 37.6075 168.172 38.0448 168.422 38.2947 168.609 40.0438 169.671 40.3562 169.858 40.9184 170.233 42.2303 171.108 42.6676 171.358 42.9175 171.545 44.6667 172.67 44.979 172.857 45.4163 173.107 46.9781 174.106 47.2905 174.294 48.0401 174.794 48.9772 175.418 49.6019 175.793 49.9142 175.981 51.5385 177.043 51.9133 177.292 52.3506 177.542 53.9124 178.542 54.2247 178.729L56.5362 180.166C56.911 180.416 58.3478 181.291 58.8476 181.603 59.5348 182.04 60.4718 182.665 61.159 183.102 61.4714 183.29 61.8462 183.539 62.2835 183.789 61.9711 183.415 61.7212 183.102 61.3464 182.602 60.9091 182.04 60.097 181.103 59.5972 180.478 59.2849 180.041 58.1604 178.604 57.9105 178.292 57.6606 177.98 56.4737 176.48 56.2238 176.105 55.9114 175.668 54.7245 174.294 54.4746 173.981L52.7254 171.857C52.3506 171.358 51.476 170.358 50.9762 169.733 50.8513 169.546 49.4145 167.734 49.2895 167.547 49.0397 167.235 47.9152 165.798 47.6028 165.36 47.3529 165.048 46.1035 163.486 45.8536 163.236 45.2914 162.549 44.7292 161.862 44.1045 161.112 43.8546 160.863 42.6676 159.363 42.3553 158.988 42.0429 158.551 40.9184 157.114 40.6686 156.802 40.2313 156.24 39.1693 154.928 38.9818 154.615 39.1068 154.74 40.6686 156.677 40.731 156.739 40.731 156.739 39.2317 154.803 39.0443 154.553 38.607 153.991 37.7949 152.991 37.3576 152.367 36.8578 151.804 36.1082 150.805 35.6084 150.243 35.2961 149.805 34.1716 148.431 33.9217 148.056 33.3595 147.431 32.6098 146.432 32.1725 145.932 31.8602 145.557 30.7982 144.308 30.4233 143.808 29.986 143.308 29.4863 142.621 29.049 142.059 28.9865 141.871 28.924 141.746 28.8616 141.622 28.4867 140.809 28.1119 139.935 27.7371 139.123 27.3623 138.248 27.0499 137.436 26.6751 136.561 26.3002 135.749 25.9254 134.875 25.5506 134.063 25.1758 133.188 24.8634 132.376 24.4886 131.501 24.1762 130.814 23.6765 129.69 23.3641 129.002 23.0518 128.315 22.552 127.128 22.3021 126.441 22.0522 125.879 21.365 124.38 21.1776 123.942 21.0527 123.63 20.2406 121.818 20.0532 121.443 19.8657 121.006 19.1161 119.257 18.9912 118.882 18.6163 118.008 18.179 117.07 17.8667 116.383 17.6793 115.946 17.0546 114.509 16.7422 113.884 16.4298 113.197 15.9925 112.073 15.6802 111.323 15.3678 110.636 14.8681 109.511 14.5557 108.824 14.1809 107.887 13.8685 107.2 13.4937 106.263 13.1189 105.451 12.7441 104.576 12.3692 103.764 12.1194 103.139 11.5571 101.765 11.3072 101.203 10.9949 100.516 10.4326 99.2663 10.1828 98.704L9.05828 96.2052 7.9338 93.7063 5.80979 88.5837 6.93427 91.0826C7.05921 91.3949 7.87133 93.2066 8.05875 93.5814 8.24616 94.0187 8.99581 95.7679 9.12075 96.1427 9.49558 96.9548 9.93287 97.9544 10.2452 98.6415 10.5576 99.3287 10.9949 100.266 11.3697 101.14 11.5571 101.515 12.2443 103.202 12.4317 103.702 12.6816 104.326 13.3063 105.638 13.5562 106.201 13.931 107.075 14.3683 107.95 14.6807 108.699L15.8051 111.198C15.4303 110.324 15.0555 109.511 14.7431 108.637 14.3683 107.762 13.9935 106.95 13.6187 106.138 13.2438 105.263 12.9315 104.451 12.5567 103.577 12.1818 102.765 11.807 101.952 11.4322 101.078 11.0573 100.266 10.6825 99.4537 10.3077 98.5791 10.1203 98.0793 9.43311 96.3926 9.24569 96.0178 9.18322 95.8304 8.18369 93.5189 8.18369 93.4565 8.05875 93.1441 7.05921 91.0201 7.05921 90.9576 7.05921 91.0201 7.99627 93.1441 8.12122 93.5189 8.18369 93.7063 9.18322 96.0178 9.18322 96.0802 8.93334 95.5805 8.30863 94.1436 8.05875 93.5814 7.87133 93.0816 7.18415 91.4574 6.99674 91.0201 6.8718 90.7702 6.05968 88.7711 5.93473 88.4588 5.62238 87.7716 5.06014 86.4597 4.81026 85.96 4.68532 85.6476 3.74825 83.5236 3.68578 83.4611 3.74825 83.5861 4.74779 85.96 4.74779 86.0224 4.74779 85.96 3.68578 83.5861 3.62331 83.5236L1.4993 78.401C1.12448 77.5264 0.812122 76.7143 0.437296 75.8397L-0.437296 73.9031 0 74.2779 0.0624709 74.153 2.18648 71.5916 3.93567 69.4676C4.18555 69.1553 5.31003 67.7809 5.68485 67.3436 5.80979 67.2187 7.49651 65.2821 7.49651 65.2196 7.43404 65.2821 5.87226 67.2187 5.74732 67.3436 5.87226 67.1562 7.49651 65.3446 7.55898 65.2821 7.49651 65.3446 5.87226 67.3436 5.80979 67.4061 5.87226 67.3436 7.37157 65.5944 7.62145 65.2821 7.99627 64.8448 8.99581 63.6578 9.43311 63.2205 9.93287 62.5958 10.4326 61.9711 10.9324 61.4089L10.9949 61.2839 11.1198 61.3464 11.4322 61.5338C12.0569 62.0336 13.0564 62.7832 13.6187 63.2205 14.2434 63.7203 15.2429 64.47 15.8051 64.8448L13.6187 63.1581C13.6187 63.1581 15.6802 64.7198 15.8051 64.7823 16.055 64.9697 17.8667 66.3441 17.9916 66.469 18.8037 67.0313 19.4909 67.5935 20.1781 68.0933 20.9277 68.6555 21.6149 69.1553 22.3646 69.7175 23.1142 70.2798 23.8014 70.7795 24.5511 71.3418L28.0494 73.9655 28.1119 74.028 28.1744 74.0905 28.7366 75.0275C28.8616 75.215 30.0485 77.4014 30.0485 77.4639 30.0485 77.4014 28.8616 75.4024 28.6741 75.09 28.6117 74.9026 28.3618 74.5278 28.1119 74.0905L28.1119 74.028 28.0494 74.028C27.4872 73.5907 26.8 73.091 26.8 73.091 26.7375 73.0285 27.4247 73.5907 28.0494 74.0905L28.1119 74.0905 28.1119 74.153C28.4243 74.7152 28.6741 75.1525 28.6741 75.215 28.6741 75.215 28.3618 74.7152 28.0494 74.2154L28.0494 74.153 27.987 74.153C27.3623 73.7157 26.6751 73.1534 26.7375 73.2159 26.8625 73.2784 27.4247 73.7157 27.9245 74.153 28.1744 74.6527 28.4243 75.09 28.4867 75.215 28.924 76.0271 29.4238 76.7767 29.8611 77.5889 30.0485 77.8387 31.173 79.9003 31.2354 79.9627 31.173 79.9003 29.986 77.7138 29.9236 77.5264 30.1734 77.9012 30.9231 79.2756 31.2979 79.9003 31.6727 80.525 32.235 81.462 32.6723 82.2742 32.7347 82.3991 33.9217 84.5231 33.9842 84.7105 34.1716 85.0229 35.1086 86.7096 35.2961 87.1469 35.5459 87.5842 36.483 89.2084 36.6704 89.5208 37.1077 90.3329 37.6075 91.0826 38.0448 91.8947 38.4821 92.7068 38.9194 93.5189 39.3567 94.3311 39.5441 94.6434 40.4811 96.3926 40.6686 96.7674 40.6061 96.6425 39.2942 94.3935 39.2942 94.3935 39.2942 94.456 40.4187 96.4551 40.6061 96.8299 41.0434 97.642 41.4807 98.4541 41.918 99.2663L44.6667 104.014C44.979 104.576 45.6038 105.638 46.041 106.388 46.2909 106.888 47.1031 108.262 47.3529 108.824 47.7278 109.511 48.3525 110.573 48.7273 111.198 48.9772 111.573 49.9142 113.322 50.0392 113.635 50.4765 114.384 51.0387 115.384 51.4135 116.008L52.7879 118.382C53.1627 119.07 53.6625 119.944 54.1623 120.756 54.4746 121.318 55.1618 122.505 55.5366 123.13 55.7865 123.63 56.0364 124.067 56.2863 124.567 56.5362 124.817 56.786 125.004 57.0984 125.254 57.1609 125.317 59.035 126.878 59.1599 127.003 59.4098 127.191 61.2215 128.815 61.2215 128.815 61.2215 128.815 59.4098 127.316 59.1599 127.066 58.7226 126.691 57.2858 125.504 57.0984 125.317 57.2233 125.442 59.1599 127.128 59.1599 127.128 59.0975 127.066 57.0984 125.442 57.0359 125.379 57.0984 125.442 58.9725 127.066 59.0975 127.191 60.4718 128.378 61.9087 129.502 63.283 130.689 63.8453 131.189 64.9697 132.126 65.3446 132.438 65.5944 132.688 67.4061 134.125 67.4061 134.187 67.4061 134.187 65.407 132.438 65.3446 132.376 65.7194 132.688 67.0313 133.75 67.4061 134.125 67.9683 134.625 68.9679 135.499 69.4676 135.937 70.2798 136.624 70.717 136.999 71.5292 137.686 72.0914 138.123 73.0285 138.998 73.5907 139.498 73.9655 139.81 75.3399 140.997 75.6523 141.247 76.4019 141.871 77.0266 142.371 77.7138 142.996L78.5259 143.746 77.9637 142.496C78.0261 142.559 78.276 143.183 78.5259 143.746L78.5884 143.808C78.276 143.121 78.0261 142.434 77.9637 142.434 77.9637 142.496 78.3385 143.183 78.6509 143.87L78.7133 143.933C78.4634 143.308 78.1511 142.559 78.0261 142.371 77.7138 141.684 77.214 140.56 76.9017 139.81L74.5902 134.875 73.4658 132.376C73.2159 131.876 72.6537 130.564 72.3413 129.877 72.2164 129.627 71.3418 127.566 71.2168 127.316 71.0919 126.941 70.2798 125.254 70.0923 124.754 69.9049 124.317 69.0928 122.63 68.9679 122.256 68.8429 122.006 67.9683 120.132 67.8434 119.757 67.5935 119.194 66.9063 117.633 66.7189 117.195 66.594 116.821 65.7819 115.134 65.5944 114.634 65.407 114.197 64.5949 112.51 64.47 112.135 64.345 111.823 63.4704 110.011 63.3455 109.636 63.0331 108.887 62.5334 107.825 62.221 107.075 61.9087 106.325 61.4714 105.326 61.0965 104.514 60.7217 103.702 60.3469 102.89 59.9721 102.015 59.5972 101.203 59.2224 100.391 58.8476 99.5161 58.4728 98.704 58.0979 97.8294 57.7231 96.9548 57.3483 96.1427 56.9735 95.2681 56.5986 94.456 56.5362 94.2686 55.4742 91.9572 55.4742 91.8947 55.4742 91.9572 56.4737 94.0187 56.5986 94.3935 56.8485 94.9558 57.5982 96.6425 57.7231 96.8924 57.6606 96.7049 56.6611 94.3935 56.5986 94.3311 56.2238 93.5189 55.849 92.7068 55.4742 91.8322 55.3492 91.5199 54.3497 89.3959 54.3497 89.3334 54.4121 89.3959 55.4117 91.7073 55.4742 91.8947 55.3492 91.6448 54.5996 89.9581 54.3497 89.3959 54.2247 89.0835 53.2252 86.9595 53.2252 86.897 53.2252 86.9595 54.2872 89.2709 54.3497 89.4583 54.2872 89.2709 53.3501 87.3343 53.2252 86.9595 52.8504 86.1474 52.4756 85.2728 52.1007 84.3982 51.7259 83.5861 51.3511 82.7115 50.9762 81.8369 50.8513 81.6495 49.8518 79.4005 49.8518 79.338 49.7268 78.9632 48.7898 76.8392 48.7273 76.7767 48.7273 76.8392 49.7268 78.9007 49.8518 79.2756 50.1641 79.9003 50.8513 81.3996 50.9762 81.7744 51.1012 82.0868 52.1007 84.2108 52.1007 84.2732 52.1007 84.2108 51.0387 81.8993 50.9762 81.7119 51.0387 81.8993 51.9758 83.8359 52.1007 84.2108 52.0383 84.0234 51.0387 81.7119 50.9762 81.6495 50.6014 80.8373 50.2266 80.0252 49.8518 79.1506 49.7268 78.8383 48.7273 76.7143 48.7273 76.6518 48.7273 76.7143 49.7893 79.0257 49.8518 79.2131 49.6019 78.7133 49.0397 77.4639 48.7273 76.7143L47.6028 74.2154C47.3529 73.7157 46.7907 72.4662 46.4783 71.7166 46.4159 71.6541 45.3539 69.2178 45.3539 69.1553 45.3539 69.1553 46.4783 71.5292 46.4783 71.6541 46.3534 71.3418 45.5413 69.5301 45.3539 69.0928 44.979 68.2807 44.6042 67.4686 44.2294 66.594 43.8546 65.7819 43.4797 64.9073 43.1049 64.0327 42.7301 63.2205 42.3553 62.346 41.9804 61.5338 41.6056 60.6592 41.2308 59.8471 40.856 58.9725 40.5436 58.2853 40.0438 57.1609 39.7315 56.4737 39.5441 56.0364 38.7944 54.2872 38.607 53.9124 38.2322 53.1003 37.7324 52.1007 37.4825 51.4135 37.1077 50.6014 36.7329 49.7268 36.3581 48.9147 35.9832 48.1026 35.6084 47.228 35.2336 46.4159 34.8588 45.6038 34.4839 44.7292 34.1091 43.917 33.9217 43.4797 33.2345 41.9804 32.9846 41.4182 32.9846 41.3557 32.8597 41.1683 32.6723 40.731L33.1096 41.4182 33.1096 41.3557C33.1096 40.7935 33.1096 39.3567 33.1096 39.3567 33.1096 39.3567 33.1096 40.5436 33.1096 41.3557L33.1096 41.4182 33.1096 41.4807C33.297 41.918 33.4219 42.1679 33.4219 42.1054 33.3595 41.9804 33.297 41.793 33.1096 41.4807L33.1096 41.4182 33.1096 41.3557C33.1096 40.6686 33.1096 39.7315 33.1096 39.2942 33.1096 38.5445 33.1096 37.4201 33.1096 36.5455 33.1096 35.8583 33.1096 34.5464 33.1096 33.7968 33.1096 33.297 33.1096 31.4853 33.1096 31.048 33.1096 30.111 33.1096 29.2989 33.1096 28.2993 33.1096 27.2998 33.1096 26.4252 33.1096 25.5506 33.1096 24.6135 33.1096 23.7389 33.1096 22.8019 33.1096 22.6145 33.1096 20.1781 33.1096 20.0532 33.1096 19.8033 33.1096 18.4914 33.1096 17.8042L33.1096 17.4294 33.4844 17.4294C33.7968 17.4294 33.9842 17.4294 33.9842 17.4294 33.9842 17.4294 33.7968 17.4294 33.4844 17.4294L33.1096 17.4918 33.1096 17.8042C33.1096 18.4914 33.1096 19.7408 33.1096 20.0532 33.1096 20.6154 33.1096 22.552 33.1096 22.8019 33.1096 22.6145 33.1096 20.0532 33.1096 20.0532 33.1096 20.1156 33.1096 22.6769 33.1096 22.8019 33.1096 22.7394 33.1096 20.2406 33.1096 20.0532L33.1096 17.9291 33.1096 17.6793 33.3595 17.6793 33.9217 17.6793C34.2965 17.6793 36.1707 17.6168 36.6704 17.6168 37.1702 17.6168 39.0443 17.6168 39.4191 17.6168 39.669 17.6168 41.9804 17.6168 42.1679 17.6168 42.98 17.6168 44.2919 17.5543 44.9166 17.5543L47.6653 17.4918C48.4149 17.4918 49.4145 17.4294 50.414 17.4294 50.7264 17.4294 52.7254 17.4294 53.1627 17.4294 53.6625 17.4294 55.4742 17.3669 55.9114 17.3669 56.5362 17.3669 57.848 17.3044 58.6602 17.3044 58.9101 17.3044 59.2224 17.3044 59.5348 17.3044L59.6597 17.3044 59.7222 17.3669C60.2219 17.8042 60.7842 18.304 61.159 18.6163 61.8462 19.1786 62.5334 19.8033 63.2205 20.3655 63.9077 20.9902 64.5949 21.6149 65.2821 22.1772 65.7819 22.6145 66.9063 23.5515 67.3436 23.9264 67.9683 24.4261 68.9679 25.3632 69.4052 25.738 69.78 26.0504 71.0294 27.1748 71.4667 27.5497 72.1539 28.1744 72.8411 28.7991 73.5282 29.3613 73.9031 29.6737 75.2774 30.8606 75.5898 31.1105 75.9021 31.3604 77.2765 32.5473 77.6513 32.8597 78.0261 33.172 79.463 34.4215 79.7129 34.6713 79.9627 34.8588 81.462 36.2331 81.7744 36.483 82.0868 36.7329 83.0863 37.545 83.5861 37.9823L83.6485 38.0448 83.6485 38.1072C83.711 38.2947 83.7735 38.4196 83.7735 38.4821 84.1483 39.3567 84.5231 40.3562 84.8355 41.0434 84.9604 41.2933 85.7725 43.2923 85.8975 43.6047 86.1474 44.1669 86.7721 45.6662 86.9595 46.1035L88.0215 48.6024C88.3338 49.2895 88.8961 50.6639 89.0835 51.1012 89.2084 51.4135 90.1455 53.5376 90.1455 53.6 90.1455 53.6 91.0826 55.849 91.2075 56.1613 91.4574 56.8485 91.9572 58.0355 92.2695 58.7226 92.6443 59.5348 92.9567 60.4094 93.3315 61.2215 93.7063 62.0336 94.0187 62.9082 94.3935 63.7203 94.5809 64.1576 95.2681 65.9693 95.4555 66.2816 95.8304 67.1562 96.2052 68.0933 96.5175 68.7805 96.8924 69.5926 97.2047 70.4672 97.5795 71.2793L98.6415 73.7781C98.7665 74.153 99.5161 75.8397 99.7036 76.277 99.891 76.7143 100.578 78.4634 100.766 78.8383 101.015 79.463 101.64 81.0872 101.828 81.3996 101.765 81.2122 100.766 78.9632 100.766 78.9007 100.766 78.9007 101.64 81.1497 101.828 81.462 102.077 82.1492 102.515 83.2112 102.89 84.0234 103.202 84.7105 103.639 85.835 103.952 86.5222 104.201 87.1469 104.764 88.5837 105.014 89.0835 105.326 89.8332 105.826 91.0201 106.076 91.5823L107.138 94.0812C107.45 94.8308 107.825 95.7054 108.2 96.58 108.449 97.0798 109.012 98.5166 109.262 99.0788 109.574 99.766 110.011 100.953 110.324 101.64 110.761 102.577 111.011 103.202 111.386 104.139 111.76 105.014 112.073 105.888 112.448 106.7L113.635 109.199C113.947 109.824 114.634 111.386 114.822 111.698 114.759 111.511 113.635 109.324 113.635 109.262 113.635 109.324 114.697 111.511 114.822 111.76 115.009 112.135 115.759 113.76 116.008 114.259L117.195 116.696C117.32 117.008 118.382 119.07 118.382 119.132 118.382 119.07 117.258 116.696 117.195 116.633 117.383 116.946 118.195 118.632 118.382 119.07 118.757 119.882 119.194 120.756 119.569 121.568 120.007 122.38 120.381 123.193 120.756 124.005 121.006 124.567 121.693 126.004 121.943 126.504 122.318 127.253 122.88 128.378 123.13 128.94 123.255 129.19 124.192 131.126 124.317 131.376 124.629 132.063 125.254 133.375 125.504 133.875 125.879 134.687 126.316 135.562 126.691 136.374 126.878 136.749 127.628 138.373 127.878 138.873 128.065 139.248 128.94 140.997 129.065 141.309 129.19 141.622 130.252 143.683 130.252 143.746 130.252 143.683 129.19 141.497 129.065 141.247 129.377 141.871 129.939 142.996 130.252 143.683 130.314 143.87 130.502 144.245 130.689 144.62 130.689 144.12 130.752 143.621 130.752 143.058 130.814 142.059 130.877 141.184 130.877 140.31 130.939 139.373 131.001 138.498 131.001 137.561 131.064 136.624 131.126 135.687 131.126 134.812 131.126 134.625 131.189 132.126 131.189 132.063 131.189 132.126 131.064 134.437 131.064 134.812 131.064 135.374 130.939 137.436 130.939 137.561 130.939 137.748 130.814 140.247 130.814 140.31 130.814 140.247 130.877 137.936 130.877 137.561 130.877 136.686 130.939 135.687 130.939 134.812L131.251 129.252C131.251 128.753 131.376 127.191 131.376 126.504 131.439 125.629 131.501 124.629 131.501 123.755 131.564 122.818 131.564 121.943 131.564 121.006 131.564 120.132 131.626 119.194 131.626 118.257 131.689 117.445 131.751 116.258 131.751 115.509 131.814 114.572 131.814 113.697 131.814 112.76 131.876 112.01 131.939 110.698 131.939 110.011 131.939 109.324 132.001 107.95 132.001 107.263 132.063 106.575 132.126 105.014 132.126 104.514 132.126 104.201 132.251 102.14 132.251 101.765 132.251 101.265 132.313 99.3912 132.313 99.0164 132.376 98.0793 132.438 97.0173 132.438 96.2677 132.438 95.9553 132.563 93.8313 132.563 93.5189 132.563 93.2691 132.626 90.8327 132.626 90.7702 132.626 90.8327 132.501 93.3315 132.501 93.5189 132.501 93.1441 132.563 91.4574 132.563 90.7702 132.563 90.083 132.626 88.8961 132.626 88.0215 132.626 87.5842 132.751 85.7725 132.751 85.2728 132.751 84.3357 132.813 83.4611 132.813 82.5241 132.813 82.3366 132.938 79.8378 132.938 79.7753 132.938 79.8378 132.876 82.3366 132.876 82.5241 132.876 82.3991 133.001 80.2126 133.001 79.7753 133.063 79.2131 133.125 77.6513 133.125 77.0266 133.125 76.5268 133.188 74.7152 133.188 74.2779 133.188 73.9655 133.25 71.904 133.25 71.5292 133.313 70.9045 133.375 69.2802 133.375 68.7805 133.375 68.5306 133.5 66.2816 133.5 66.0317 133.5 65.3446 133.563 63.8453 133.563 63.283 133.563 62.346 133.625 61.4714 133.625 60.5343 133.625 59.7846 133.688 58.7851 133.688 57.7856 133.688 57.4732 133.813 55.4742 133.813 55.0369 133.813 54.5371 133.875 52.7254 133.875 52.2881 133.938 51.3511 133.938 50.4765 133.938 49.5394 134 48.6024 134.063 47.6653 134.063 46.7907 134.063 46.4783 134.187 44.042 134.187 44.042 134.187 44.1045 134.125 46.6658 134.125 46.7907 134.125 46.2909 134.25 44.6667 134.25 44.042 134.25 43.2923 134.312 42.1054 134.312 41.2933 134.375 40.4187 134.437 39.4191 134.437 38.5445 134.5 37.545 134.562 36.7954 134.562 35.7958 134.562 34.9212 134.625 33.9217 134.625 33.0471 134.687 32.1725 134.75 31.173 134.75 30.2984 134.75 29.3613 134.812 28.4867 134.812 27.5497 134.875 26.9874 134.937 25.3007 134.937 24.8009 134.937 24.4261 134.937 24.0513 135 23.614L135 23.5515 135.062 23.4891C135.374 22.9893 135.749 22.4895 135.937 22.1772 136.436 21.4275 136.999 20.6779 137.498 19.9282 137.998 19.1786 138.498 18.4289 139.06 17.6793 139.31 17.3044 140.31 15.9301 140.622 15.4303 141.122 14.7431 141.746 13.8685 142.246 13.1814 142.121 13.3063 140.684 15.4303 140.684 15.4303 140.684 15.4303 142.059 13.4937 142.309 13.1814 142.684 12.6816 143.433 11.6196 143.933 10.9324 144.245 10.4326 145.12 9.24569 145.495 8.68345 145.807 8.30863 146.869 6.74686 147.119 6.4345 147.306 6.12215 148.618 4.24802 148.681 4.18555 148.681 4.18555 147.181 6.30956 147.056 6.4345 146.682 6.93427 145.807 8.18369 145.495 8.68345 144.87 9.55805 144.433 10.1203 143.87 10.9324 143.496 11.4322 142.621 12.6191 142.246 13.1814 142.684 12.5567 143.371 11.5571 143.808 10.9324 144.37 10.1203 144.87 9.49558 145.432 8.68345 145.932 7.99627 146.494 7.18415 146.994 6.4345 147.556 5.68485 148.056 4.9352 148.618 4.18555 149.118 3.4359 149.68 2.68625 150.18 1.9366 150.68 1.18695 151.242 0.437296 151.804-0.312354L151.929-0.499767 152.117-0.499767C153.054-0.437296 153.928-0.437296 154.865-0.374825 155.802-0.312354 156.739-0.249884 157.614-0.187413 158.551-0.124942 159.488-0.0624709 160.363-1.45996e-13 160.863-1.45996e-13 162.674 0.124942 163.112 0.124942 163.361 0.124942 165.61 0.249884 165.86 0.249884 166.672 0.312354 167.984 0.374825 168.609 0.437296 169.421 0.499767 170.421 0.562238 171.358 0.624709 171.545 0.624709 171.732 0.624709 171.982 0.68718L172.232 0.68718 172.232 0.937063C172.295 1.62424 172.42 2.56131 172.482 3.06107 172.545 3.31096 172.794 5.68485 172.794 5.74732 172.857 6.12215 173.107 8.49604 173.107 8.49604 173.107 8.43357 172.794 5.93473 172.794 5.80979 172.794 6.05968 173.044 8.18369 173.107 8.55851L173.794 13.9935 174.106 16.6797C174.231 17.4918 174.356 18.4289 174.419 19.366 174.481 19.9282 174.669 21.4275 174.731 22.0522 174.794 22.8019 174.919 24.0513 175.043 24.8009 175.168 25.863 175.231 26.4877 175.356 27.4872 175.481 28.4243 175.543 29.2989 175.668 30.2359 175.731 30.5483 175.981 32.9222 175.981 32.9846 175.981 32.8597 175.668 30.3609 175.668 30.2984 175.668 30.3609 175.918 32.9846 175.981 33.0471 175.981 32.9846 175.668 30.4233 175.668 30.3609 175.668 30.4233 175.918 32.9846 175.981 33.1096L176.043 33.4219 176.043 33.4844 176.043 33.5469 175.043 38.5445C174.919 39.2317 174.669 40.2937 174.481 41.2308 174.419 41.6056 173.981 43.4173 173.856 43.917 173.669 44.7916 173.482 45.7287 173.294 46.6033 173.107 47.4779 172.919 48.4149 172.732 49.2895 172.607 49.7268 172.232 51.6634 172.107 51.9758 171.92 52.9128 171.732 53.9124 171.545 54.662L170.983 57.3483C170.92 57.7856 170.546 59.4098 170.421 60.0345 170.358 60.4094 169.858 62.4084 169.796 62.7208 169.733 63.0331 169.296 65.0947 169.171 65.407 169.109 65.6569 168.609 68.0933 168.609 68.0933 168.484 68.6555 168.172 70.1548 167.984 70.7795 167.859 71.5292 167.609 72.7161 167.422 73.4658 167.235 74.4028 167.047 75.215 166.797 76.152 166.61 76.9641 166.422 77.9637 166.235 78.8383 166.048 79.7129 165.86 80.6499 165.61 81.5245 165.423 82.3991 165.236 83.3362 164.986 84.2108 164.861 84.7105 164.548 86.4597 164.423 86.897 164.361 87.2094 163.986 89.2084 163.861 89.5833 163.736 90.208 163.361 91.8322 163.236 92.2695 163.174 92.4569 162.674 94.8308 162.612 94.9558 162.549 95.2681 162.112 97.5795 162.049 97.642 162.049 97.5795 162.612 95.0807 162.674 94.9558 162.612 95.1432 162.237 97.1422 162.112 97.642 161.987 98.3292 161.737 99.5161 161.55 100.328 161.487 100.766 161.362 101.39 161.237 102.077 161.237 102.39 161.237 102.702 161.175 102.952 161.175 103.139 160.988 105.513 160.988 105.701 160.925 106.388 160.863 107.575 160.8 108.449 160.8 108.949 160.738 110.573 160.675 111.198 160.613 112.073 160.55 113.072 160.488 113.947 160.488 113.447 160.613 111.635 160.613 111.198 160.675 110.261 160.675 109.449 160.738 108.449 160.613 110.261 160.488 112.135 160.363 114.009 160.3 114.884 160.3 115.821 160.238 116.758 160.175 117.32 160.113 119.007 160.05 119.507 160.05 120.007 159.988 120.569 159.988 121.069 160.175 121.443 160.3 121.756 160.425 122.006 160.738 122.63 161.175 123.692 161.55 124.504 161.862 125.192 162.362 126.254 162.674 127.003 162.737 127.128 162.799 127.253 162.799 127.316 163.112 126.941 163.361 126.629 163.611 126.379 164.236 125.566 164.673 125.067 165.298 124.255 165.548 123.942 166.86 122.38 167.11 122.131 167.672 121.443 168.297 120.694 168.921 120.007 169.109 119.757 170.421 118.195 170.733 117.883 171.108 117.445 172.17 116.071 172.42 115.759L174.106 113.635C174.169 113.572 174.231 113.51 174.294 113.385 174.606 112.885 175.106 111.885 175.418 111.323 175.731 110.761 176.48 109.511 176.793 108.949 177.043 108.449 177.855 107.013 178.105 106.575 178.542 105.826 179.167 104.764 179.479 104.201 179.729 103.764 180.541 102.327 180.853 101.828 181.228 101.14 181.79 100.141 182.165 99.4537 182.54 98.7665 183.165 97.7045 183.539 97.0798 183.727 96.7674 184.726 94.8933 184.851 94.7059 185.039 94.3935 186.226 92.332 186.226 92.332 186.226 92.3944 184.976 94.5809 184.914 94.7059 184.914 94.6434 186.163 92.5194 186.288 92.332 186.476 91.9572 187.413 90.2704 187.6 89.9581 187.788 89.5833 188.662 88.0215 188.912 87.5842 189.037 87.3343 190.224 85.3352 190.286 85.2103 190.474 84.8979 191.598 82.8364 191.598 82.8364 191.598 82.8364 190.286 85.0854 190.224 85.2103 190.661 84.3982 191.098 83.6485 191.536 82.8364 191.786 82.3991 192.723 80.7749 192.91 80.4625 193.285 79.8378 194.097 78.401 194.284 78.0886 194.16 78.276 192.973 80.4625 192.973 80.4625 192.973 80.4625 194.284 78.2136 194.347 78.0886 194.597 77.5889 195.471 76.0896 195.659 75.7147 195.784 75.4024 196.971 73.3408 196.971 73.3408L195.596 75.7147C195.846 75.2774 196.596 73.8406 196.908 73.3408 197.283 72.6537 197.908 71.5916 198.283 70.9669 198.72 70.1548 199.157 69.4052 199.595 68.593 200.032 67.7809 200.532 66.9688 200.969 66.2191 201.344 65.532 201.906 64.47 202.281 63.8453 202.531 63.408 203.468 61.7837 203.655 61.4714 204.092 60.7217 204.655 59.6597 204.967 59.0975 205.404 58.2853 205.842 57.4732 206.279 56.7236 206.466 56.3487 207.278 54.8494 207.591 54.3497 208.028 53.6625 208.528 52.663 208.965 51.9758 209.153 51.601 210.152 49.7893 210.277 49.6019 210.464 49.2895 211.651 47.228 211.651 47.228L210.34 49.6019C210.652 49.0397 211.339 47.7902 211.714 47.228 212.089 46.5408 212.651 45.4788 213.026 44.8541 213.526 43.917 213.9 43.3548 214.4 42.4802 214.775 41.8555 215.337 40.731 215.712 40.1063 215.962 39.669 216.899 38.0448 217.086 37.7324 217.274 37.4201 218.273 35.6709 218.461 35.3585 218.773 34.7963 219.523 33.3595 219.773 32.9846L221.084 30.6107C221.272 30.2984 222.146 28.6117 222.396 28.2368 222.834 27.4247 223.333 26.6126 223.771 25.863 224.083 25.3632 224.458 24.5511 224.833 23.9264L224.895 23.7389 225.083 23.6765C225.27 23.614 225.457 23.614 225.645 23.5515 226.519 23.4266 227.644 23.2392 228.394 23.1142 229.393 22.9268 230.268 22.8019 231.142 22.6769 231.517 22.6145 233.454 22.3021 233.891 22.2396 234.391 22.1772 236.202 21.8023 236.577 21.7399 237.452 21.5525 238.389 21.4275 239.264 21.2401 239.576 21.1776 241.512 20.8028 241.95 20.7403 242.512 20.6779 244.261 20.3655 244.699 20.303 244.948 20.2406 247.197 19.8657 247.447 19.8657 248.259 19.7408 249.509 19.4909 250.133 19.366L251.82 19.0536 252.133 18.9912 252.257 19.3035 252.632 20.2406C252.757 20.6154 253.444 22.3021 253.632 22.8019 253.757 23.2392 254.444 25.0508 254.569 25.4257 254.694 25.738 255.381 27.6746 255.506 28.0494 255.818 28.924 256.131 29.7361 256.505 30.6107 256.818 31.4853 257.13 32.3599 257.443 33.2345 257.692 33.8592 258.192 35.2336 258.442 35.7958 258.692 36.5455 259.192 37.8574 259.379 38.4196 259.504 38.732 260.191 40.6686 260.316 41.0434 260.379 41.2933 260.691 42.0429 260.941 42.6676L262.878 42.6051ZM63.6578 219.148 62.4709 218.773C62.7208 218.836 62.9082 218.898 63.0956 218.96 63.0956 219.023 63.3455 219.085 63.6578 219.148ZM108.137 248.009 104.014 244.261C104.077 244.324 104.139 244.386 104.201 244.449 104.389 244.574 106.138 246.26 106.201 246.323 106.45 246.51 108.2 248.134 108.262 248.134 108.262 248.134 108.2 248.072 108.137 248.009ZM181.291 154.178C181.291 154.178 181.291 154.116 181.291 154.178 181.291 154.116 181.291 154.178 181.291 154.178ZM116.946 256.131C116.946 256.131 116.946 256.131 116.946 256.131 116.946 256.131 117.008 256.131 116.946 256.131ZM90.3954 53.6C90.0206 52.7254 89.7082 51.9758 89.3334 51.1012 89.3959 51.2261 90.3954 53.6 90.3954 53.6 90.3954 53.6625 91.3324 55.9739 91.4574 56.1613 91.3324 55.9114 90.5203 53.9124 90.3954 53.6ZM43.4797 101.515C43.4797 101.515 42.3553 99.3912 42.1679 99.0788 42.1054 98.9539 40.9184 96.9548 40.7935 96.7049 40.9809 97.0173 41.9804 98.8914 42.1054 99.1413 42.2928 99.4537 43.4797 101.515 43.4797 101.515ZM4.06061 84.0234C4.18555 84.2732 5.12261 86.3972 5.18508 86.5222 5.12261 86.3348 4.12308 84.0234 4.12308 83.9609 3.99814 83.711 3.06107 81.587 2.9986 81.462 2.9986 81.462 3.99814 83.8359 4.06061 84.0234ZM18.9287 188.1C19.6159 188.725 20.303 189.287 20.9902 189.912 20.9277 189.849 18.9912 188.037 18.9287 188.037 18.8037 187.912 16.9296 186.288 16.8671 186.226 16.9296 186.226 18.8037 187.975 18.9287 188.1ZM141.122 251.071C141.184 251.008 142.496 248.759 142.559 248.697 142.496 248.759 141.247 251.008 141.247 251.071 141.309 251.008 142.559 248.884 142.621 248.697 143.496 247.135 144.433 245.511 145.307 243.886 144.37 245.511 143.433 247.072 142.496 248.697 142.371 248.884 141.184 251.008 141.122 251.071ZM162.174 120.069C162.174 120.256 162.112 121.006 162.112 121.693 162.112 121.693 162.112 121.693 162.112 121.631L162.112 121.693C162.112 121.693 162.112 121.693 162.112 121.693 162.112 121.693 162.112 121.693 162.112 121.693L162.112 121.818C162.112 121.818 162.112 121.756 162.112 121.756 162.299 122.193 162.424 122.505 162.424 122.505 162.424 122.505 162.299 122.193 162.112 121.693 162.174 121.006 162.237 120.132 162.174 120.069 162.237 119.569 162.362 117.633 162.362 117.32 162.424 116.383 162.424 115.509 162.487 114.572 162.487 114.946 162.299 117.133 162.299 117.32 162.237 118.257 162.174 119.257 162.174 120.069ZM162.049 121.818C162.049 121.756 162.049 121.756 162.049 121.693 162.049 121.693 162.049 121.631 161.987 121.631L162.049 121.818ZM170.296 68.6555C170.483 67.7185 170.67 66.9063 170.858 65.9693 170.858 66.0942 170.233 68.6555 170.233 68.6555L169.671 71.3418C169.671 71.3418 170.233 68.8429 170.296 68.6555Z" fill="#E8CACE" fill-rule="nonzero" fill-opacity="0.74" transform="matrix(1.00141 0 0 1 421.594 1491.5)"/></g></g></g></g></g></svg>