<svg width="243" height="220" xmlns="http://www.w3.org/2000/svg" xmlns:xlink="http://www.w3.org/1999/xlink" xml:space="preserve" overflow="hidden"><g transform="translate(-132 -1507)"><g><g><g><g><path d="M206.745 75.9174C206.036 76.1263 205.699 76.2255 205.15 76.3876 205.521 76.2693 206.04 76.1142 206.745 75.9174ZM172.585 61.0689 173.214 60.2159 172.243 61.4169 171.737 62.1897 172.585 61.0689ZM224.636 123.444 230.83 124.005 227.921 123.698 224.636 123.444ZM144.751 149.016 144.506 148.15 144.375 147.85 144.751 149.016ZM47.9648 109.981C47.5746 109.989 47.0336 110.009 46.3031 110.05 47.0412 110.019 47.3921 110.005 47.9648 109.981ZM174.666 58.2828C174.654 58.297 174.625 58.3312 174.579 58.3894 174.61 58.3515 174.637 58.3192 174.666 58.2828ZM153.559 90.9966C153.56 90.9976 153.564 90.9977 153.565 90.9989 153.626 90.9804 153.618 90.9813 153.559 90.9966ZM43.2449 95.4291C43.2921 95.4397 43.3341 95.449 43.3834 95.4601 43.3077 95.4422 43.262 95.4319 43.2449 95.4291ZM90.1926 107.753C90.1885 107.753 90.1815 107.752 90.1771 107.753 90.2038 107.758 90.2156 107.76 90.1926 107.753ZM236.925 111.6C236.918 111.855 236.911 111.93 236.903 111.931 236.913 116.109 236.922 120.367 236.932 124.527 234.593 124.281 232.283 124.037 230.028 123.799 228.042 123.571 226.105 123.349 224.242 123.135 223.81 123.157 221.675 122.976 219.144 122.728L218.629 122.856C214.59 122.443 209.975 121.994 206.198 121.567 199.49 120.942 193.331 120.216 187.537 119.545 186.525 119.506 186.23 119.546 187.666 119.722 182.264 119.116 176.032 118.464 169.698 117.812 169.55 117.801 169.399 117.79 169.252 117.779 169.119 117.757 169.139 117.76 169.039 117.744 166.23 117.455 163.438 117.168 160.655 116.882 160.445 116.867 160.24 116.853 160.038 116.838 159.937 116.831 159.838 116.824 159.739 116.817L159.653 116.812 159.603 116.812C159.483 116.81 159.369 116.808 159.264 116.806 159.069 116.803 158.931 116.8 158.82 116.789 158.513 116.773 158.265 116.755 158.035 116.733 158.458 116.977 158.707 117.144 158.982 117.339 159.134 117.449 159.274 117.55 159.41 117.648 159.855 117.93 160.286 118.203 160.727 118.482 165.323 121.187 169.36 123.592 172.13 125.321 174.208 126.501 176.094 127.572 178.056 128.687 177.807 128.533 177.75 128.482 177.431 128.29L175.196 127.049C173.14 125.819 170.451 124.214 173.026 125.601L173.819 126.162C177.05 127.936 185.867 133.067 183.866 131.739 188.046 134.251 186.46 133.393 183.584 131.772 185.924 133.098 187.958 134.27 189.928 135.411 193.942 137.689 197.949 139.963 202.165 142.356 203.216 142.958 204.281 143.567 205.362 144.186 205.902 144.497 206.446 144.809 206.994 145.124 207.544 145.438 208.09 145.769 208.668 146.051 210.953 147.235 213.317 148.46 215.79 149.741L215.564 149.675C218.274 151.108 222.267 153.222 225.699 155.077 225.539 154.917 223.738 153.905 222.47 153.199 223.923 153.988 225.349 154.745 226.733 155.468 228.599 156.43 230.404 157.361 232.137 158.255 230.681 159.268 229.276 160.245 227.927 161.182 226.993 161.844 226.099 162.477 225.249 163.078 223.546 164.277 222.021 165.352 220.712 166.274L224.631 163.682C223.464 164.464 222.402 165.175 221.387 165.855 220.367 166.549 219.395 167.211 218.414 167.88L220.555 166.208C219.25 167.115 218.035 167.96 217.149 168.576 216.437 168.118 215.731 167.665 215.607 167.597 215.374 167.457 215.244 167.389 215.243 167.411 213.254 165.991 215.85 167.519 213.726 165.965 211.373 164.47 208.948 162.93 206.367 161.29 206.168 161.235 204.752 160.421 207.126 162.026 205.978 161.271 204.685 160.433 203.237 159.507L204.148 160.177C194.784 154.293 200.031 157.171 190.431 150.891 191.573 151.795 188.079 149.647 186.514 148.589 190.389 151.123 188.483 149.619 184.991 147.215 183.523 146.282 182.417 145.566 181.48 144.951 181.078 144.699 180.682 144.451 180.253 144.182L180.618 144.379C179.844 143.857 179.215 143.432 178.653 143.052 178.061 142.726 177.521 142.429 176.945 142.112 176.358 141.791 175.73 141.455 174.97 141.058L177.74 142.475C170.457 138.588 161.32 133.917 152.188 129.212 151.909 129.149 152.366 129.478 150.502 128.543 150.065 128.302 149.654 128.076 149.265 127.863 149.146 127.794 149.033 127.729 148.926 127.668 148.706 127.544 148.503 127.437 148.336 127.354 148.49 127.623 148.638 127.865 148.766 128.064L148.86 128.208 148.904 128.275C148.926 128.309 148.911 128.278 148.988 128.414 149.217 128.815 149.449 129.222 149.692 129.647 150.657 131.348 151.766 133.344 153.385 136.412 152.214 134.564 151.962 134.113 153.472 137.05 154.812 139.374 156.372 142.147 158.008 145.088 158.358 145.717 158.707 146.346 159.051 146.964 162.277 152.798 165.559 158.733 167.315 161.906L165.113 158.174C168.95 164.911 170.169 167.426 171.717 170.47 172.089 171.144 172.44 171.781 172.829 172.486L172.006 171.037C173.133 173.24 174.512 175.847 177.194 180.553L173.628 173.603C176.238 178.503 178.554 182.592 178.064 181.364 178.757 182.687 179.139 183.448 179.378 183.946 179.494 184.197 179.579 184.38 179.65 184.534 179.684 184.612 179.714 184.682 179.744 184.751 179.78 184.831 179.785 184.854 179.852 184.991 179.885 185.091 179.921 185.197 179.965 185.328 180.006 185.441 180.054 185.575 180.115 185.744 180.24 186.08 180.426 186.55 180.72 187.267 181.128 188.241 181.51 189.154 181.963 190.235 182.089 190.533 182.17 190.726 182.313 191.064L182.271 190.98C183.056 192.877 183.76 194.626 183.852 195.111L186.554 200.921C187.108 202.205 187.604 203.355 188.055 204.401 188.661 205.843 189.207 207.14 189.71 208.336 189.014 208.327 188.345 208.319 187.697 208.312 187.158 208.302 186.637 208.293 186.129 208.284 185.369 208.261 184.649 208.24 183.939 208.219 184.253 208.249 184.781 208.289 185.612 208.343 181.927 208.338 178.378 208.334 174.889 208.33 175.524 208.344 175.833 208.35 176.863 208.373 175.937 208.374 175.035 208.374 174.206 208.375 173.384 207.187 172.656 206.137 172.114 205.354 171.639 204.657 171.337 204.192 171.293 204.07 171.095 203.782 170.9 203.498 170.702 203.211 170.23 202.545 169.645 201.696 168.921 200.622 167.661 198.787 166.414 196.974 165.184 195.183L163.115 192.236 163.465 192.695 165.001 194.917C164.538 194.245 164.085 193.587 163.627 192.923 163.582 192.859 163.507 192.755 163.465 192.695L163.422 192.625C161.723 190.168 160.044 187.74 158.376 185.328 156.672 182.896 154.98 180.479 153.289 178.065 152.866 176.682 152.445 175.303 152.023 173.923 151.317 170.796 149.201 163.574 147.287 157.018 146.644 154.884 146.028 152.84 145.463 150.965 145.348 150.601 145.236 150.245 145.127 149.899 145.046 149.658 144.967 149.422 144.891 149.194 144.743 148.76 144.612 148.404 144.506 148.149 144.38 147.704 144.251 147.249 144.113 146.761 143.736 145.437 143.343 144.059 142.97 142.747 143.109 144.077 143.247 145.392 143.363 146.505 143.521 147.964 143.656 149.209 143.782 150.367 143.809 150.582 143.833 150.773 143.861 150.994 143.825 150.54 143.825 150.41 143.817 150.2 143.888 150.771 143.952 151.285 144.011 151.751 144.075 152.322 144.133 152.834 144.186 153.298 144.287 154.228 144.357 154.969 144.409 155.609 144.701 158.148 144.982 160.584 145.167 162.197 144.98 160.772 144.762 159.117 144.535 157.391 144.581 158.192 144.622 158.972 144.695 159.956 145.025 162.52 145.323 164.83 145.513 166.307L145.49 167.385C145.499 167.459 145.504 167.502 145.513 167.578 146.407 173.411 144.948 161.452 145.45 165.104 146.103 166.653 146.949 178.96 148.098 186.666L147.915 184.786C148.309 187.589 148.656 190.997 149.033 194.839 149.223 196.761 149.423 198.79 149.632 200.908 149.74 201.966 149.851 203.047 149.965 204.147 150.099 205.375 150.236 206.625 150.375 207.895 149.891 208.2 149.39 208.517 148.886 208.836L148.964 208.872C147.818 209.538 146.36 210.411 144.882 211.3 143.469 212.2 142.108 213.034 140.883 213.724 138.647 215.1 136.344 216.516 133.934 217.999 133.915 217.455 133.894 216.855 133.872 216.252 133.851 215.925 133.836 215.908 133.809 215.336 133.817 215.136 133.821 215.114 133.829 215.012 133.717 211.756 133.606 208.537 133.506 205.634 133.443 208.541 133.586 209.872 133.323 208.108 133.184 204.231 133.581 208.122 133.407 202.188 133.332 200.862 133.263 199.665 133.192 198.407 132.993 195.54 132.758 192.04 132.582 191.447L132.904 199.319C132.474 195.302 132.482 189.122 132.261 184.982L132.17 185.516C131.921 179.165 131.877 176.055 131.811 172.687 131.744 171.316 131.68 170.009 131.619 168.778 131.596 168.163 131.574 167.565 131.553 166.989 131.539 166.427 131.525 165.886 131.513 165.365 131.502 165.299 131.492 165.24 131.483 165.181L131.522 165.364 131.615 166.975C131.607 166.468 131.598 165.93 131.588 165.356 131.543 165.095 131.493 164.808 131.443 164.52 131.196 163.205 131.001 162.167 130.68 160.46L130.711 160.579C129.748 155.627 128.666 150.584 128.208 147.756L127.919 146.894C127.57 144.896 126.948 141.319 126.177 136.889 126.084 137.17 125.878 137.871 125.658 138.634 125.577 138.924 125.516 139.145 125.423 139.481L125.448 139.359C125.2 140.241 124.967 141.066 124.723 141.934 124.438 143.014 124.153 144.099 123.854 145.23 124.272 143.817 124.762 142.158 125.281 140.399 125.563 139.481 125.861 138.511 126.152 137.564 126.276 138.34 126.396 139.097 126.51 139.811 126.533 139.966 126.556 140.118 126.579 140.268 126.626 140.542 126.672 140.811 126.716 141.076 126.824 141.7 126.927 142.299 127.024 142.867 126.875 142.088 126.683 141.084 126.469 139.965 126.364 139.395 126.248 138.767 126.132 138.135 125.852 139.118 125.57 140.107 125.334 140.93 124.844 142.677 124.439 144.07 124.217 144.741L125.027 141.811 125.639 139.625C125.577 139.801 125.513 139.98 125.448 140.164L125.397 140.316 125.307 140.611C125.247 140.81 125.187 141.011 125.125 141.215 124.884 142.029 124.632 142.877 124.372 143.757 123.866 145.523 123.324 147.416 122.748 149.425 121.727 153.332 120.702 157.25 119.738 160.939 119.722 161.057 119.737 161.069 119.703 161.245L119.727 161.167 119.691 161.294C119.381 162.869 118.428 166.554 117.297 170.851L117.371 170.694C117.005 172.154 116.782 172.924 116.622 173.418 114.881 180.011 112.959 187.26 112.335 190.398 111.603 193.055 110.873 195.706 110.141 198.364 109.354 201.305 108.565 204.256 107.769 207.233 101.48 205.281 95.0747 203.293 88.3854 201.216 90.4676 196.024 92.6249 190.643 94.8875 185 92.9812 190.77 96.1687 182.077 96.8222 181.148 97.3897 179.694 98.023 178.101 98.821 176.158 97.9911 177.933 96.7773 180.565 98.7144 175.54 96.713 180.958 101.803 168.496 99.8514 173.795L99.963 173.54 104.184 162.446C105.253 159.45 102.507 166.34 102.57 165.918 106.175 156.89 103.919 162.066 106.213 156.061 105.871 157.339 107.693 153.007 109.712 147.835L106.983 155.154C109.514 149.181 110.551 146.396 111.531 143.729L111.711 143.238 111.74 143.122C111.755 143.056 111.77 142.99 111.785 142.922 111.807 142.827 111.829 142.725 111.854 142.611 111.91 142.404 111.957 142.272 112.291 141.548L112.231 141.586C112.229 141.62 112.213 141.673 112.184 141.745 112.015 142.087 111.868 142.372 111.745 142.599 111.792 142.5 111.847 142.382 111.911 142.246 111.856 142.305 111.733 142.465 111.577 142.673 111.489 142.789 111.4 142.908 111.308 143.029 110.537 144.111 109.755 145.208 108.978 146.298 105.807 150.737 102.699 155.037 100.667 157.679 100.296 158.209 99.9644 158.68 99.6415 159.139 99.1421 159.949 98.8909 160.446 100.336 158.441 95.5179 165.322 90.0524 172.908 84.8737 180.124 83.5806 181.929 82.3041 183.71 81.0579 185.45 80.4355 186.32 79.8204 187.18 79.2145 188.027 78.5761 188.852 77.9473 189.663 77.3297 190.46 74.8637 193.652 72.5956 196.625 70.647 199.249L71.5213 198.291C70.8388 199.161 70.199 199.948 69.5545 200.743 69.2333 201.142 68.9107 201.542 68.5788 201.954 68.083 202.588 67.5733 203.239 67.0383 203.923 66.3695 203.413 65.6445 202.859 64.8694 202.268 65.0521 202.413 65.078 202.434 65.3024 202.611 65.0757 202.436 64.7669 202.198 64.4807 201.977 64.2894 201.834 64.1324 201.717 63.9318 201.567L63.6969 201.532C63.1107 201.064 61.7406 199.969 60.1144 198.67 59.2967 198.026 58.4144 197.332 57.5344 196.639 56.4726 195.82 55.4131 195.004 54.4362 194.25L53.8649 193.841 54.0134 193.658 53.8459 193.843 55.5951 195.244 56.6307 196.097C55.5848 195.302 54.5668 194.528 53.6865 193.859 55.2655 192.035 56.7499 190.32 58.1622 188.688 59.3634 187.322 60.5031 186.025 61.6008 184.776 63.817 182.297 65.8629 180.009 67.8928 177.738 67.9761 177.618 67.9433 177.629 68.16 177.358 68.1721 177.399 68.5633 176.976 69.1788 176.287 69.7914 175.594 70.6348 174.641 71.5432 173.615L69.6615 175.52C71.2008 173.745 72.7111 172.006 74.521 169.855L71.4951 173.451C73.5217 171.182 76.189 168.195 79.2696 164.746 79.7499 164.111 80.4947 163.184 81.3952 162.087 82.2881 161.014 83.3259 159.766 84.406 158.467 86.1524 155.602 88.0329 152.517 89.3995 150.275L89.2389 150.446C91.8584 146.235 94.2923 142.365 96.6265 138.681 97.7966 136.841 98.9383 135.045 100.064 133.275 100.323 132.902 100.578 132.533 100.833 132.167L99.807 132.801C98.3402 133.796 96.8656 134.796 95.37 135.81 92.1683 137.996 88.8762 140.244 85.379 142.632 81.7845 145.31 76.051 149.367 69.5529 153.922 63.0641 158.464 55.8287 163.528 49.1796 168.182 46.3955 170.585 43.7541 172.865 41.328 174.96 43.3427 173.169 40.8319 175.052 38.4254 177.058 37.8584 177.556 37.2027 178.114 36.5142 178.693 35.5747 179.479 34.5951 180.299 33.6478 181.092 33.1448 180.075 32.6566 179.087 32.2112 178.186 31.9 177.564 31.6188 177.001 31.3873 176.538 30.9148 175.617 30.6176 175.107 30.6298 175.338L31.3002 176.652C30.6424 175.603 29.66 173.787 28.5278 171.611 27.9677 170.519 27.3629 169.341 26.7389 168.126 25.9713 166.609 25.18 165.044 24.3961 163.494 25.9958 162.532 27.5756 161.582 29.0662 160.686L30.193 160.459C35.2131 157.213 41.4028 153.446 47.6839 149.685 53.964 145.945 60.309 142.166 65.6936 138.959 66.8421 138.138 67.9441 137.35 68.9883 136.603 70.0359 135.843 71.0259 135.125 71.9466 134.457 73.7817 133.112 75.3267 131.949 76.4854 131.024 79.9117 128.647 84.1888 125.68 87.5962 123.316L87.2884 123.282C88.7687 122.212 90.1213 121.235 91.3737 120.33 91.5933 120.165 91.7953 120.013 91.9847 119.871 91.7246 119.913 91.4712 119.954 91.2133 119.996 89.7992 120.208 88.3609 120.424 86.8382 120.652 83.4688 121.147 79.7256 121.698 75.0712 122.382L77.9865 122.096C69.9919 123.304 67.7828 123.017 60.3994 124.107L58.2351 124.742C44.2685 126.822 30.1832 129.2 16.3356 130.984 16.57 130.995 16.9932 131.022 19.2734 130.694 17.3808 130.984 14.6347 131.404 11.5824 131.871 11.5746 129.457 11.5663 126.862 11.5582 124.362 11.5617 122.271 11.5653 120.259 11.5682 118.557 11.5915 115.463 11.6524 113.4 11.7839 113.736 11.7727 113.647 11.7627 113.524 11.754 113.366 11.7502 113.267 11.7459 113.159 11.7411 113.039 11.7378 112.864 11.7342 112.673 11.7302 112.467 11.7254 112.05 11.7199 111.571 11.714 111.033 12.478 111.002 13.3842 110.963 14.4025 110.921 15.0825 110.897 15.8374 110.871 16.6472 110.843 18.267 110.799 20.1066 110.748 22.0054 110.697 25.8038 110.613 29.8401 110.524 32.8329 110.458L31.6286 110.299C38.0605 110.322 38.2703 110.385 47.2506 110.125 48.8325 110.047 49.0728 109.959 47.9643 109.981 52.8821 109.771 52.7291 109.993 60.4168 109.611L57.2122 109.6C64.509 109.314 63.9361 109.405 67.9471 109.408 72.5309 109.32 81.78 108.845 82.8551 108.621 83.4111 108.663 84.9505 108.678 86.9117 108.649 87.0742 108.64 87.156 108.635 87.3313 108.624 87.2871 108.633 87.5319 108.632 87.6875 108.634 88.1843 108.624 88.7022 108.613 89.2407 108.602 89.7005 108.589 90.1804 108.569 90.6351 108.543 90.7012 108.505 90.4562 108.486 90.1721 108.475 89.9223 108.469 89.5709 108.462 89.3366 108.457 90.5045 108.386 91.454 108.344 92.4212 108.312 91.5147 108.07 90.7363 107.849 89.9285 107.617 89.5079 107.496 89.1011 107.378 88.7037 107.264 87.9919 107.067 87.2971 106.875 86.6117 106.685 83.5777 105.854 80.7051 105.089 77.4261 104.311 77.2531 104.336 76.7097 104.228 76.0361 104.073 80.7277 105.298 84.9624 106.404 87.935 107.18 88.7232 107.383 89.3444 107.543 89.7446 107.646 89.9784 107.705 90.1223 107.74 90.1766 107.752 90.0154 107.757 89.7032 107.712 89.4065 107.668 89.0977 107.622 88.8008 107.575 88.6066 107.557 88.5089 107.548 88.4358 107.546 88.3918 107.553 88.3713 107.566 88.2721 107.56 88.339 107.599 88.3552 107.647 88.4929 107.736 88.4948 107.803L88.4272 107.756 88.3706 107.725 88.3356 107.708 88.3154 107.699 88.152 107.652C87.2762 107.4 86.3479 107.132 85.3805 106.854 83.445 106.302 81.3546 105.705 79.2236 105.097 74.9582 103.892 70.5212 102.673 66.8111 101.746L65.8366 101.557 66.5889 101.776 61.9171 100.52C59.5698 99.9362 58.0487 99.5611 55.7976 98.9738 54.889 98.8965 47.0864 96.7762 43.2964 95.7905 43.6565 95.6747 38.8155 94.4365 43.2445 95.4288 43.1247 95.4094 44.4044 95.7539 46.6056 96.3387L48.2046 96.78 47.9639 96.6986C50.4363 97.3505 53.666 98.202 57.3414 99.1711 54.382 98.2875 51.2847 97.3848 47.089 96.402 45.184 95.766 43.0794 95.0739 41.8922 94.697 36.6501 93.6185 26.6508 91.1571 25.2243 90.966 22.3414 90.1887 19.2044 89.3429 16.0042 88.48 13.339 87.1397 10.6272 85.7758 8.0003 84.4549 5.19618 83.0307 2.48244 81.6527 0 80.392 0.262681 79.7729 0.521026 79.1636 0.774644 78.5655 0.946208 78.1698 1.11465 77.7816 1.27974 77.4012 1.61307 76.6415 1.93281 75.9137 2.23642 75.222 2.84905 73.8409 3.40818 72.6101 3.89948 71.5705 4.4436 70.3012 4.77314 69.4613 5.00152 68.8308 5.29178 68.0048 5.48186 67.464 5.67817 66.9049 5.97131 66.9424 6.2699 66.9808 6.60533 67.0238L5.64582 66.8461 3.58973 71.6423C4.17215 70.2593 4.86616 68.611 5.62511 66.8085 9.19438 67.4526 13.258 68.1859 16.5965 68.788 19.7689 69.3747 22.2476 69.8622 22.8657 70.0795 31.3056 71.4265 18.1877 69.0133 29.7313 71.0682L28.2022 70.7185C30.234 71.0444 32.1987 71.3594 34.0909 71.6628 35.2864 72.057 36.4601 72.4441 37.6159 72.8251 38.7511 73.2064 39.8683 73.5821 40.9715 73.9528 43.1723 74.7099 45.3162 75.4474 47.4308 76.175 51.6493 77.6615 55.7513 79.1068 59.9575 80.5891 68.3686 83.5564 77.2123 86.6244 88.3634 90.0999L85.4503 89.2227C89.7043 90.6245 94.0088 92.0432 98.3501 93.4738 89.5908 87.6055 80.715 81.659 71.9068 75.7579 61.961 69.1016 52.0714 62.5269 42.391 56.2573 39.4163 54.3142 37.6116 53.0949 36.1763 52.094 34.5772 50.961 33.3695 50.1054 31.6884 48.9142 32.1207 48.5401 32.7265 48.0157 33.4074 47.4267L34.5725 46.071 41.0715 40.5155C42.7731 39.0181 44.3689 37.5732 45.9151 36.148 47.5484 34.6232 49.1429 33.1348 50.7481 31.6363 52.18 32.819 53.6196 34.0084 55.098 35.2299 56.4703 36.3714 57.8785 37.5429 59.3513 38.7682 62.2841 41.2338 65.443 43.9518 69.0137 47.1632L67.4141 45.9855C71.6092 49.5507 80.6041 57.4268 80.0168 56.6966 80.4186 57.0772 81.2792 57.9845 82.9727 59.3361L83.1699 59.3539 93.3174 68.3278C101.324 75.092 92.3577 66.8995 103.995 76.8615 107.148 79.6119 112.194 84.1644 113.98 85.8513 113.399 83.4118 111.985 76.844 111.18 72.7738 108.346 57.7197 110.977 69.5764 109.105 59.2635L106.385 45.9933 106.468 45.8135C106.14 43.6715 105.783 42.4733 105.653 41.9351 105.993 42.8086 103.65 31.0844 102.651 25.6705L102.874 27.6443C101.943 23.287 101.203 19.4487 100.562 15.9061 100.251 14.1331 99.9532 12.4363 99.6637 10.7863 99.3687 9.05117 99.082 7.36526 98.7986 5.69791 101.084 4.91586 103.332 4.14667 105.63 3.36009 107.845 2.58686 110.101 1.77533 112.477 0.87765L114.728 0 115.918 6.64601 115.963 8.43304C116.833 13.357 117.133 14.1971 118.271 22.3189 119.62 32.2318 121.11 42.3846 122.651 52.6254 124.171 62.6137 125.704 72.6934 127.227 82.7062 130.123 79.4995 133.011 76.3031 135.881 73.1262 138.937 69.7768 141.974 66.448 144.984 63.1495L142.875 65.3422C144.883 63.2137 146.777 61.1786 148.579 59.2198 149.477 58.2377 150.355 57.2775 151.216 56.3367 152.065 55.3983 152.895 54.4795 153.712 53.5773 154.653 51.7327 155.566 49.9431 156.459 48.1927 157.346 46.4281 158.213 44.7029 159.068 43.0013 160.766 39.5922 162.417 36.2775 164.084 32.9307 167.424 26.2399 170.872 19.4413 175.114 11.61L174.467 13.0387C179.819 2.60664 173.799 14.5088 177.836 6.97535 177.889 6.81763 177.967 6.618 178.14 6.24183 178.325 5.84023 178.578 5.31419 178.899 4.66253 179.857 5.34036 181.127 6.23901 182.572 7.26016 183.874 8.19852 185.332 9.24963 186.823 10.3231 189.798 12.4763 192.895 14.726 195.137 16.318L190.773 13.2319C191.759 14.0292 192.074 14.4581 194.835 16.4181 195.776 17.0351 196.867 17.7743 198.08 18.6122 198.685 19.0333 199.322 19.477 199.988 19.9405 200.791 20.5101 201.628 21.1042 202.495 21.7195 201.197 23.4682 199.801 25.3482 198.353 27.2982 197.01 29.0909 195.62 30.9481 194.223 32.8136 191.428 36.5435 188.608 40.306 186.101 43.6522 185.346 44.4257 181.577 49.1872 178.28 53.2404 177.801 53.8851 177.357 54.4957 176.993 55.04L177.524 54.3729C175.169 57.4259 174.081 58.8087 173.532 59.4763 173.107 60.1168 172.672 60.7715 172.243 61.417 169.546 64.778 167.665 67.399 165.881 69.92 168.176 66.8903 170.193 64.228 171.737 62.1898L171.598 62.4025 172.585 61.0689C173.965 59.2398 174.76 58.1789 174.666 58.2829 177.545 54.7641 174.496 58.7274 174.851 58.5962 172.476 61.7096 167.642 68.1913 166.974 68.8125 165.565 70.6632 164.599 71.8966 163.111 73.804L160.209 77.6738 160.666 77.0376 160.015 77.787C159.855 77.998 159.659 78.2548 159.495 78.4713 157.711 80.9006 157.4 81.2916 157.535 81.0503 155.979 83.1114 154.347 85.3165 152.754 87.4908 151.963 88.574 151.18 89.6476 150.419 90.6906 150.144 91.0977 149.93 91.4253 149.776 91.6739 150.06 91.5733 150.331 91.4772 150.587 91.3861 150.689 91.348 150.787 91.3111 150.883 91.2752 151.236 91.1679 151.576 91.0639 151.905 90.964 151.534 91.0861 151.215 91.1907 150.943 91.2799L150.885 91.3018 150.861 91.3142 150.812 91.3387 150.721 91.3848C150.607 91.4438 150.522 91.4917 150.482 91.5247 150.4 91.5918 150.508 91.5973 150.754 91.5619 150.817 91.5519 150.886 91.5409 150.957 91.5298 151.117 91.4931 151.283 91.4551 151.45 91.4165 151.791 91.3385 152.137 91.2592 152.448 91.1881 153.053 91.0533 153.521 90.9602 153.559 90.9966 153.415 91.0336 152.933 91.1649 152.161 91.3777 151.416 91.5835 150.283 91.8959 148.879 92.2834 150.339 90.3654 152.185 87.9402 154.189 85.3086 153.755 85.8468 153.393 86.2662 153.242 86.354 152.483 87.3059 151.764 88.2245 151.068 89.1286 150.48 89.9026 149.905 90.6594 149.329 91.4169L149.29 91.4918C149.25 91.5368 149.254 91.5259 149.222 91.5599 148.986 91.8782 148.749 92.1975 148.49 92.5477 149.761 92.173 151.076 91.7854 152.493 91.3676 154.297 90.8515 156.23 90.2982 158.366 89.6865 158.71 89.5784 158.708 89.5789 159.195 89.4259 159.329 89.3966 159.51 89.3567 159.655 89.3251 161.125 88.9244 162.667 88.5042 164.361 88.0424 163.873 88.1928 163.27 88.3891 162.927 88.52 165.321 87.8654 168.149 87.0106 170.865 86.2033 171.121 86.1136 171.436 86.0071 171.573 85.9516 171.641 85.9445 171.968 85.8624 172.093 85.8389 173.607 85.3928 175.052 84.9762 176.32 84.6388 176.415 84.6959 177.685 84.3787 179.384 83.9272 178.567 84.0692 177.551 84.3115 176.32 84.6388L176.923 84.3193C178.308 83.9231 178.858 83.98 179.408 83.9207 181.411 83.3882 184.179 82.6196 187.306 81.7471 188.502 81.3567 189.245 81.1071 190.441 80.7472 191.639 80.3896 193.282 79.8985 196.273 79.0054L193.242 80.0484C194.961 79.5573 196.068 79.2233 197.099 78.9087 197.649 78.736 198.506 78.4669 199.544 78.1407 201.143 77.6168 202.573 77.1431 205.15 76.3875 204.861 76.4794 204.711 76.5355 204.62 76.5752 207.946 75.5536 211.718 74.3952 215.158 73.3391 216.678 72.8163 218.177 72.301 220.717 71.4281L219.677 71.942C219.952 71.8568 220.286 71.7531 220.545 71.6729L220.311 71.696C220.423 71.682 220.779 71.5823 220.952 71.5468 223.215 70.8316 225.908 69.9804 228.566 69.1403 229.896 68.7246 231.217 68.3118 232.47 67.92 234.076 67.4296 235.596 66.9654 236.954 66.5503 236.954 67.663 236.953 68.6892 236.953 69.6045 236.946 70.2136 236.939 70.7486 236.934 71.1933 236.921 71.8078 236.901 72.2443 236.873 72.4701 236.958 72.2581 237.013 73.0536 237.048 74.4863 237.068 75.3157 237.081 76.3578 237.089 77.5398 237.093 78.9259 237.096 80.476 237.1 82.1052 231.919 83.6569 225.791 85.492 222.565 86.4579 224.766 85.777 225.137 85.5712 225.344 85.4613 212.067 89.7819 198.322 93.6688 184.811 97.7732L183.681 97.9523C183.283 98.1086 182.98 98.2274 182.614 98.3716 181.329 98.7291 178.936 99.441 176.457 100.18 175.805 100.421 175.176 100.654 174.541 100.888L174.065 101.066 173.825 101.154 173.726 101.2C173.624 101.252 173.519 101.304 173.412 101.357 173.036 101.551 172.881 101.665 172.634 101.767 172.824 101.779 172.986 101.792 173.141 101.811 172.874 101.819 172.541 101.819 172.143 101.813L172.18 101.764C172.096 101.791 172.013 101.818 171.982 101.827 173.825 102.024 175.399 102.192 176.818 102.344 179.474 102.64 181.84 102.903 184.127 103.158 188.7 103.684 192.959 104.173 198.606 104.822L198.354 105.002C202.482 105.402 207.664 105.904 211.814 106.307 214.165 106.695 217.689 107.134 221.92 107.612 226.337 108.087 231.488 108.642 236.893 109.224 236.894 109.464 236.895 109.713 236.896 109.963L236.941 109.727C236.932 110.683 236.928 111.261 236.925 111.6ZM167.615 67.9678C167.871 67.6997 168.418 67.0454 169.971 64.9555L170.515 64.0674 170.34 64.3393 167.615 67.9678ZM54.7733 98.7039 50.3901 97.5288 50.0844 97.423 51.0611 97.786C53.5716 98.4739 54.4062 98.6513 54.7733 98.7039ZM114.238 86.7324 114.523 86.9778 114.403 86.3431C114.316 86.2691 114.225 86.1918 114.134 86.1144 114.157 86.2378 114.18 86.3581 114.201 86.4757L114.392 86.6754 114.209 86.5147C114.209 86.5179 114.21 86.5213 114.211 86.5244 114.226 86.6227 114.233 86.6859 114.238 86.7324ZM114.108 85.9726C114.21 86.0693 114.295 86.1516 114.369 86.2237L114.143 85.4585 114.265 85.6178 113.864 83.5055 113.27 80.5599C113.192 80.7258 113.697 83.73 114.108 85.9726ZM109.702 82.5547 113.613 85.9922C113.688 86.1244 113.816 86.3023 113.944 86.4805L114.195 86.6957C114.177 86.6354 114.153 86.5492 114.126 86.4418L113.613 85.9922 113.513 85.7542 114.109 86.3792C114.083 86.2749 114.053 86.1557 114.02 86.0171 112.277 84.5381 109.886 82.5706 109.702 82.5547ZM151.261 133.299C151.668 133.961 152.164 134.797 152.692 135.701L150.697 131.983C150.586 131.879 150.918 132.607 151.261 133.299ZM219.95 122.661C219.818 122.648 219.705 122.636 219.573 122.622L219.543 122.63 219.95 122.661ZM207.126 162.026C207.604 162.35 208.232 162.769 209.059 163.315 208.468 162.915 207.824 162.486 207.126 162.026ZM47.0895 96.4023 45.5849 96.0559 46.606 96.3391 47.9643 96.699 47.0895 96.4023ZM167.479 87.062C171.364 85.906 170.56 86.111 167.213 86.9695 167.513 86.9321 162.232 88.4872 167.479 87.062ZM182.212 119.212 180.381 119 175.252 118.441 182.212 119.212ZM146.714 155.608 146.134 154.458C147.396 158.985 147.475 158.337 146.714 155.608ZM130.831 161.933C130.504 160.072 129.72 156.47 129.004 152.831 129.432 155.658 130.379 160.19 130.831 161.933ZM34.2473 157.591 37.1097 155.959 39.6095 154.439 34.2473 157.591Z" fill="#CAAACD" fill-rule="nonzero" fill-opacity="0.77" transform="matrix(1.00207 0 0 1 137.204 1509)"/></g></g></g></g></g></svg>