<svg width="147" height="87" xmlns="http://www.w3.org/2000/svg" xmlns:xlink="http://www.w3.org/1999/xlink" xml:space="preserve" overflow="hidden"><g transform="translate(-664 -650)"><g><path d="M809 696C809 707.327 804.427 717.574 797.044 724.99 789.662 732.414 779.454 737 768.185 737L705.211 737C683.276 737 665 718.648 665 696 665 684.672 669.573 674.426 676.956 667.01 684.338 659.586 694.546 655 705.211 655L768.185 655C779.454 655 789.662 659.586 797.044 667.01 804.427 674.426 809 684.672 809 696Z" fill="#FF2D01" fill-rule="evenodd" fill-opacity="1"/><path d="M809 696C809 707.327 804.407 717.574 796.991 724.99 789.576 732.414 779.323 737 768.004 737 745.357 737 727 718.648 727 696 727 684.672 731.586 674.426 739.009 667.01 746.431 659.586 756.677 655 768.004 655 779.323 655 789.576 659.586 796.991 667.01 804.407 674.426 809 684.672 809 696Z" fill="#FF78E5" fill-rule="evenodd" fill-opacity="1"/></g></g></svg>